<svg width="48" height="48" viewBox="0 0 48 48" fill="none" xmlns="http://www.w3.org/2000/svg">
<circle cx="24" cy="24" r="24" fill="url(#paint0_linear_111_2429)" fill-opacity="0.3"/>
<path opacity="0.3" fill-rule="evenodd" clip-rule="evenodd" d="M18.6667 11.3333C17.7462 11.3333 17 12.0794 17 12.9999V34.9999C17 35.9204 17.7462 36.6666 18.6667 36.6666H29.3333C30.2538 36.6666 31 35.9204 31 34.9999V12.9999C31 12.0794 30.2538 11.3333 29.3333 11.3333H18.6667Z" fill="#532D94"/>
<path fill-rule="evenodd" clip-rule="evenodd" d="M18.6667 9.33325H29.3333C31.3584 9.33325 33 10.9749 33 12.9999V34.9999C33 37.025 31.3584 38.6666 29.3333 38.6666H18.6667C16.6416 38.6666 15 37.025 15 34.9999V12.9999C15 10.9749 16.6416 9.33325 18.6667 9.33325ZM18.6667 11.3333C17.7462 11.3333 17 12.0794 17 12.9999V34.9999C17 35.9204 17.7462 36.6666 18.6667 36.6666H29.3333C30.2538 36.6666 31 35.9204 31 34.9999V12.9999C31 12.0794 30.2538 11.3333 29.3333 11.3333H28V10.9999C28 10.6317 27.7015 10.3333 27.3333 10.3333H20.6667C20.2985 10.3333 20 10.6317 20 10.9999V11.3333H18.6667ZM20 11.3333V12.3333C20 12.7014 20.2985 12.9999 20.6667 12.9999H27.3333C27.7015 12.9999 28 12.7014 28 12.3333V11.3333H20Z" fill="#532D94"/>
<defs>
<linearGradient id="paint0_linear_111_2429" x1="0" y1="0" x2="9.44417" y2="49.6733" gradientUnits="userSpaceOnUse">
<stop offset="0.00593653" stop-color="#4DA6AE" stop-opacity="0.4"/>
<stop offset="0.519118" stop-color="#4B7EA5" stop-opacity="0.3"/>
<stop offset="1" stop-color="#494899" stop-opacity="0.4"/>
</linearGradient>
</defs>
</svg>
