<svg width="213" height="167" viewBox="0 0 213 167" fill="none" xmlns="http://www.w3.org/2000/svg">
<path d="M-18.5225 25.4911C-15.6052 36.2326 -11.6459 44.1375 -5.4879 49.0968C0.69371 54.075 8.94511 55.9713 20.1802 55.0221C42.1702 53.164 64.439 48.8908 85.4259 42.0784C105.108 35.6898 124.249 27.6563 143.353 19.6384L143.357 19.6364L143.359 19.6358L143.361 19.6348L143.363 19.6343L143.363 19.6341L143.37 19.6313L143.378 19.6281L143.393 19.6216C151.897 16.0527 160.393 12.4869 168.935 9.06623L168.936 9.06616C170.027 8.62883 171.118 8.18323 172.206 7.73848C172.207 7.73816 172.208 7.73785 172.208 7.73754L172.236 7.72661L172.241 7.72459C176.844 5.84281 181.404 3.98041 186.104 2.71162C193.957 0.59244 201.122 2.31069 205.844 6.42924C210.551 10.5354 212.925 17.1079 211.061 24.9368C197.617 81.421 183.334 137.709 169.05 194L169.88 194.21L169.05 194L166.908 202.443C165.618 207.528 163.296 211.727 159.969 214.843C156.645 217.956 152.276 220.028 146.82 220.792C141.287 221.566 136.298 221.047 131.947 219.194C127.6 217.343 123.836 214.139 120.781 209.453L120.064 209.92L120.781 209.452C117.388 204.25 114.162 198.935 110.927 193.606C106.793 186.794 102.647 179.962 98.1465 173.363C91.432 163.517 84.783 158.247 77.8815 158.17C70.976 158.092 64.2773 163.216 57.4761 172.914C50.1991 183.29 43.6317 194.173 37.0954 205.005L35.886 207.008C32.3257 212.904 28.5127 218.055 23.7129 221.444C18.9498 224.808 13.1645 226.472 5.55666 225.299C-1.87617 224.153 -6.699 220.803 -10.0686 216.209C-13.467 211.576 -15.4181 205.636 -16.9892 199.264C-23.9243 171.128 -30.8026 142.98 -37.6809 114.83L-37.6811 114.829L-37.6861 114.809C-41.4616 99.3578 -45.2372 83.9065 -49.0223 68.4572L-54.4182 46.4335L-54.4206 46.424L-54.4231 46.4146L-58.4528 31.4469L-58.4527 31.4469L-58.4559 31.4358C-58.4753 31.3674 -58.5165 31.237 -58.5747 31.053C-58.7713 30.4315 -59.1617 29.1974 -59.5606 27.665C-60.0739 25.6927 -60.547 23.4131 -60.547 21.7357C-60.547 20.0204 -60.335 18.3561 -59.9363 16.767C-57.7282 7.96547 -49.7888 1.45395 -40.339 1.45395C-31.504 1.45395 -23.9888 7.14567 -21.2438 15.0809L-21.2438 15.081C-21.0826 15.5468 -20.9378 16.0206 -20.8102 16.5013L-20.8019 16.5326L-20.7912 16.5633C-20.2803 18.0299 -19.6861 20.3695 -19.3079 22.1202C-19.3038 22.1396 -19.2996 22.1589 -19.2954 22.1782L-19.2954 22.1784L-19.2906 22.2006C-19.0542 23.3003 -18.8134 24.4205 -18.5225 25.4911ZM-18.5225 25.4911L-17.6963 25.2667M-18.5225 25.4911C-18.5225 25.4912 -18.5225 25.4912 -18.5225 25.4912L-17.6963 25.2667M-17.6963 25.2667C-17.9812 24.2183 -18.218 23.1169 -18.4561 22.0091L-18.4584 21.9985L143.039 18.8418L143.038 18.8421C123.923 26.8646 104.81 34.8865 85.1616 41.2641C64.2422 48.0545 42.0384 52.316 20.1081 54.169C-2.11 56.0462 -11.8964 46.6219 -17.6963 25.2667Z" stroke="url(#paint0_linear_111_4139)" stroke-width="1.71223"/>
<path d="M-18.5225 25.4911C-15.6052 36.2326 -11.6459 44.1375 -5.4879 49.0968C0.69371 54.075 8.94511 55.9713 20.1802 55.0221C42.1702 53.164 64.439 48.8908 85.4259 42.0784C105.108 35.6898 124.249 27.6563 143.353 19.6384L143.357 19.6364L143.359 19.6358L143.361 19.6348L143.363 19.6343L143.363 19.6341L143.37 19.6313L143.378 19.6281L143.393 19.6216C151.897 16.0527 160.393 12.4869 168.935 9.06623L168.936 9.06616C170.027 8.62883 171.118 8.18323 172.206 7.73848C172.207 7.73816 172.208 7.73785 172.208 7.73754L172.236 7.72661L172.241 7.72459C176.844 5.84281 181.404 3.98041 186.104 2.71162C193.957 0.59244 201.122 2.31069 205.844 6.42924C210.551 10.5354 212.925 17.1079 211.061 24.9368C197.617 81.421 183.334 137.709 169.05 194L169.88 194.21L169.05 194L166.908 202.443C165.618 207.528 163.296 211.727 159.969 214.843C156.645 217.956 152.276 220.028 146.82 220.792C141.287 221.566 136.298 221.047 131.947 219.194C127.6 217.343 123.836 214.139 120.781 209.453L120.064 209.92L120.781 209.452C117.388 204.25 114.162 198.935 110.927 193.606C106.793 186.794 102.647 179.962 98.1465 173.363C91.432 163.517 84.783 158.247 77.8815 158.17C70.976 158.092 64.2773 163.216 57.4761 172.914C50.1991 183.29 43.6317 194.173 37.0954 205.005L35.886 207.008C32.3257 212.904 28.5127 218.055 23.7129 221.444C18.9498 224.808 13.1645 226.472 5.55666 225.299C-1.87617 224.153 -6.699 220.803 -10.0686 216.209C-13.467 211.576 -15.4181 205.636 -16.9892 199.264C-23.9243 171.128 -30.8026 142.98 -37.6809 114.83L-37.6811 114.829L-37.6861 114.809C-41.4616 99.3578 -45.2372 83.9065 -49.0223 68.4572L-54.4182 46.4335L-54.4206 46.424L-54.4231 46.4146L-58.4528 31.4469L-58.4527 31.4469L-58.4559 31.4358C-58.4753 31.3674 -58.5165 31.237 -58.5747 31.053C-58.7713 30.4315 -59.1617 29.1974 -59.5606 27.665C-60.0739 25.6927 -60.547 23.4131 -60.547 21.7357C-60.547 20.0204 -60.335 18.3561 -59.9363 16.767C-57.7282 7.96547 -49.7888 1.45395 -40.339 1.45395C-31.504 1.45395 -23.9888 7.14567 -21.2438 15.0809L-21.2438 15.081C-21.0826 15.5468 -20.9378 16.0206 -20.8102 16.5013L-20.8019 16.5326L-20.7912 16.5633C-20.2803 18.0299 -19.6861 20.3695 -19.3079 22.1202C-19.3038 22.1396 -19.2996 22.1589 -19.2954 22.1782L-19.2954 22.1784L-19.2906 22.2006C-19.0542 23.3003 -18.8134 24.4205 -18.5225 25.4911ZM-18.5225 25.4911L-17.6963 25.2667M-18.5225 25.4911C-18.5225 25.4912 -18.5225 25.4912 -18.5225 25.4912L-17.6963 25.2667M-17.6963 25.2667C-17.9812 24.2183 -18.218 23.1169 -18.4561 22.0091L-18.4584 21.9985L143.039 18.8418L143.038 18.8421C123.923 26.8646 104.81 34.8865 85.1616 41.2641C64.2422 48.0545 42.0384 52.316 20.1081 54.169C-2.11 56.0462 -11.8964 46.6219 -17.6963 25.2667Z" stroke="url(#paint1_linear_111_4139)" stroke-width="1.71223"/>
<defs>
<linearGradient id="paint0_linear_111_4139" x1="18.4137" y1="303.643" x2="200.28" y2="0.598022" gradientUnits="userSpaceOnUse">
<stop offset="0.386552" stop-color="white"/>
<stop offset="1" stop-color="white" stop-opacity="0"/>
</linearGradient>
<linearGradient id="paint1_linear_111_4139" x1="18.4137" y1="303.643" x2="200.28" y2="0.598022" gradientUnits="userSpaceOnUse">
<stop offset="0.386552" stop-color="white"/>
<stop offset="1" stop-color="white" stop-opacity="0"/>
</linearGradient>
</defs>
</svg>
