<svg width="32" height="32" viewBox="0 0 32 32" fill="none" xmlns="http://www.w3.org/2000/svg">
<path fill-rule="evenodd" clip-rule="evenodd" d="M7.3335 6.66669C6.22893 6.66669 5.3335 7.56212 5.3335 8.66669V14.8667C5.97972 14.7355 6.64856 14.6667 7.3335 14.6667C12.6323 14.6667 16.9686 18.788 17.3116 24H27.3335C28.4381 24 29.3335 23.1046 29.3335 22V8.66669C29.3335 7.56212 28.4381 6.66669 27.3335 6.66669H7.3335Z" fill="#532D94"/>
<path opacity="0.3" fill-rule="evenodd" clip-rule="evenodd" d="M3.99984 21.1667C3.99984 19.786 5.11913 18.6667 6.49984 18.6667H8.16651C9.54722 18.6667 10.6665 19.786 10.6665 21.1667V22.6667H10.9998C11.5521 22.6667 11.9998 23.1144 11.9998 23.6667V28.3334C11.9998 28.8856 11.5521 29.3334 10.9998 29.3334H3.6665C3.11422 29.3334 2.6665 28.8856 2.6665 28.3334V23.6667C2.6665 23.1144 3.11422 22.6667 3.6665 22.6667H3.99984V21.1667ZM6.83317 20C6.00474 20 5.33317 20.6716 5.33317 21.5V22.6667H9.33317V21.5C9.33317 20.6716 8.6616 20 7.83317 20H6.83317Z" fill="#532D94"/>
<rect x="5" y="10" width="25" height="2" fill="#DADADA"/>
</svg>
