<svg width="20" height="20" viewBox="0 0 20 20" fill="none" xmlns="http://www.w3.org/2000/svg">
<path fill-rule="evenodd" clip-rule="evenodd" d="M1.66699 7.14967L8.86752 11.3069C8.94505 11.3517 9.02635 11.384 9.10911 11.4045V19.4673L2.18053 15.3669C1.86223 15.1785 1.66699 14.8361 1.66699 14.4663V7.14967ZM18.4117 7.03918V14.4663C18.4117 14.8362 18.2164 15.1786 17.8981 15.3669L10.9696 19.4673V11.3339C10.9864 11.3255 11.0032 11.3165 11.0197 11.3069L18.4117 7.03918Z" fill="#716E89"/>
<path opacity="0.2" fill-rule="evenodd" clip-rule="evenodd" d="M1.89307 5.13199C1.98102 5.02093 2.09203 4.92706 2.22145 4.85812L9.54729 0.956225C9.85483 0.792424 10.2237 0.792424 10.5313 0.956225L17.8571 4.85812C17.9569 4.91126 18.0457 4.97922 18.1214 5.05845L10.0894 9.69572C10.0366 9.72621 9.98794 9.7611 9.94356 9.79966C9.89918 9.7611 9.85049 9.72621 9.79768 9.69572L1.89307 5.13199Z" fill="#716E89"/>
</svg>
