<svg width="65" height="64" viewBox="0 0 65 64" fill="none" xmlns="http://www.w3.org/2000/svg">
<path fill-rule="evenodd" clip-rule="evenodd" d="M16.1114 9.87297C16.1114 9.87297 16.1114 54.4192 15.1316 57.7534C15.1232 57.7822 53.5131 63.9999 53.5131 63.9999C53.5131 63.9999 57.4051 59.0341 64.6411 54.4047L62.6534 7.46021L16.1114 9.87297Z" fill="url(#paint0_linear_111_2520)"/>
<path fill-rule="evenodd" clip-rule="evenodd" d="M15.7996 55.4217L15.1316 57.784L53.3755 64C53.3755 64 54.8182 52.7025 54.8182 21.8487C54.8182 17.585 54.7496 11.6858 54.7496 11.6858L32.8638 17.7714L21.1654 38.2798L15.7996 55.4217Z" fill="url(#paint1_linear_111_2520)"/>
<path opacity="0.696963" fill-rule="evenodd" clip-rule="evenodd" d="M56.6186 20.4751L56.8242 25.5926L56.9616 30.7118C57.0308 34.1255 57.0641 37.5401 57.0632 40.9549C57.0449 44.3695 57.007 47.7843 56.8906 51.1977C56.7707 54.6098 56.6201 58.0238 56.2872 61.4227C56.3952 59.7189 56.4694 58.0142 56.522 56.3085C56.5828 54.6032 56.6279 52.8973 56.6597 51.1914C56.7277 47.7792 56.7683 44.3671 56.7629 40.954C56.789 37.5416 56.7508 34.1285 56.7313 30.7155L56.6186 20.4751Z" fill="#888DB0"/>
<path opacity="0.7" fill-rule="evenodd" clip-rule="evenodd" d="M58.2593 10.9968L58.3952 17.0361L58.5004 23.0754L58.6616 35.1543L58.7533 47.2332L58.7743 53.273L58.7638 59.3132L58.6273 53.2745L58.5221 47.235L58.3612 35.1558L58.2701 23.076L58.2494 17.0364L58.2593 10.9968Z" fill="#888DB0"/>
<path opacity="0.7" fill-rule="evenodd" clip-rule="evenodd" d="M60.6061 15.4092C60.7038 18.8523 60.7685 22.2957 60.8283 25.7394L60.9702 36.0706L61.0427 46.4024L61.0541 51.5688L61.0343 56.735L60.9068 51.57L60.8115 46.4048L60.6702 36.0736L60.5983 25.7418C60.5866 22.2978 60.58 18.8535 60.6061 15.4092Z" fill="#888DB0"/>
<path opacity="0.7" fill-rule="evenodd" clip-rule="evenodd" d="M62.1957 23.6383L62.5012 34.4493L62.7369 45.2621L62.8304 50.6688L62.8917 56.0767L62.6828 50.6727L62.506 45.2678L62.2011 34.4565L61.966 23.6437C61.8998 20.0394 61.8388 16.4346 61.8105 12.8291C61.9627 16.4316 62.0817 20.0346 62.1957 23.6383Z" fill="#888DB0"/>
<path fill-rule="evenodd" clip-rule="evenodd" d="M18.0378 27.2092C17.7627 31.4286 18.0378 39.2517 15.1316 57.7536L42.3294 62.1919C42.3294 62.1919 42.7895 62.3619 46.7349 56.0769C50.6803 49.7919 54.8182 40.9491 54.5445 20.7433C54.5003 17.482 54.8182 10.7544 54.8182 10.7544L18.0378 27.2092Z" fill="url(#paint2_linear_111_2520)"/>
<path fill-rule="evenodd" clip-rule="evenodd" d="M15.7264 9.03125C15.6389 9.03005 17.4279 43.4444 0 52.8005C0 52.8005 3.38263 53.5848 4.93576 53.712C6.48889 53.8393 8.14603 53.9991 8.14603 53.9991C8.14603 53.9991 11.6713 54.9436 12.536 55.0931C13.4007 55.2425 13.7803 55.1653 14.1592 55.2109C17.232 55.5813 19.4638 56.3348 20.4236 56.5332C21.3834 56.7316 22.2388 56.1024 22.7341 56.1809C23.4197 56.2895 23.6823 56.947 24.3829 57.0651C25.0834 57.1832 26.4312 56.536 27.2949 56.7707C28.1846 57.0124 29.5695 57.6528 30.066 57.7085C31.7121 57.8931 34.1245 58.1743 34.1245 58.1743C34.1245 58.1743 36.3057 58.6861 37.3052 58.8902C38.7733 59.1899 39.8956 59.313 39.8956 59.313C39.8956 59.313 55.536 47.4728 54.5445 10.7542L15.7264 9.03125Z" fill="white"/>
<path fill-rule="evenodd" clip-rule="evenodd" d="M17.7843 13.3057C18.2842 13.3057 18.2842 40.9491 4.8291 51.0579L38.5285 55.9856C38.5285 55.9856 51.1518 49.693 51.7331 15.4093L17.7843 13.3057Z" fill="url(#paint3_linear_111_2520)"/>
<path fill-rule="evenodd" clip-rule="evenodd" d="M14.7634 1.76726L15.1315 10.7214L54.7688 12.1555L62.8913 8.17605L62.5534 0.312588L24.4806 0L14.7634 1.76726Z" fill="url(#paint4_linear_111_2520)"/>
<path fill-rule="evenodd" clip-rule="evenodd" d="M24.3407 32.6425L25.826 32.8229C26.5767 32.9059 27.2126 32.7391 27.7324 32.3226C28.252 31.9062 28.5887 31.2529 28.7429 30.363C28.8911 29.5055 28.8244 28.8185 28.5427 28.3011C28.2613 27.7836 27.7474 27.4803 27.0009 27.3907C26.3476 27.3125 25.77 27.4812 25.2685 27.8955C24.7664 28.3104 24.4492 28.8919 24.3173 29.6405L21.8837 29.3477C22.0479 28.427 22.3958 27.6126 22.9267 26.9036C23.4574 26.1947 24.1149 25.6706 24.8984 25.3312C25.6819 24.992 26.5127 24.8742 27.3912 24.9788C28.8418 25.1511 29.9041 25.7383 30.5781 26.7398C31.2528 27.7424 31.4533 29.0482 31.1779 30.657C31.0396 31.4652 30.7002 32.2006 30.1596 32.8632C29.6187 33.5259 28.9853 33.9979 28.2595 34.2796C29.0048 34.7159 29.5246 35.3223 29.819 36.0986C30.1133 36.8761 30.1746 37.7678 30.0021 38.7738C29.7243 40.3902 29.0505 41.6201 27.9796 42.4635C26.9074 43.3068 25.6326 43.6355 24.1561 43.4511C22.7406 43.2747 21.6631 42.67 20.9244 41.6373C20.1868 40.6051 19.9556 39.3255 20.2295 37.7973L22.6775 38.0983C22.5374 38.8878 22.6405 39.5561 22.9872 40.1027C23.3335 40.6502 23.8738 40.9695 24.6074 41.0606C25.3681 41.1547 26.01 40.9819 26.5337 40.5417C27.0568 40.1021 27.3999 39.4127 27.5631 38.4732C27.7276 37.5255 27.6257 36.7688 27.2583 36.2017C26.8909 35.6356 26.2586 35.2973 25.3605 35.1876L23.9228 35.012L24.3407 32.6425Z" fill="url(#paint5_linear_111_2520)"/>
<path fill-rule="evenodd" clip-rule="evenodd" d="M39.9741 47.265L30.0657 46.0254L30.4177 43.9581L36.4089 38.0048C37.273 37.123 37.9074 36.3752 38.3127 35.7616C38.7174 35.1483 38.9732 34.5145 39.0806 33.8599C39.2219 32.9995 39.1404 32.28 38.8367 31.703C38.5334 31.1264 38.0514 30.7981 37.3909 30.719C36.6034 30.6243 35.9432 30.8486 35.4101 31.3916C34.8765 31.9348 34.5232 32.7226 34.35 33.7556L31.9129 33.4607C32.099 32.3627 32.4682 31.3982 33.0208 30.5672C33.5725 29.7355 34.2643 29.1213 35.0957 28.7235C35.927 28.3252 36.8316 28.1842 37.8109 28.3014C39.2231 28.4698 40.2657 29.044 40.9383 30.0242C41.6124 31.0046 41.8234 32.2746 41.5709 33.8326C41.4242 34.7358 41.0649 35.6579 40.4918 36.5977C39.9182 37.5373 39.0586 38.5785 37.9122 39.7215L33.5352 44.0038L40.3665 44.8538L39.9741 47.265Z" fill="url(#paint6_linear_111_2520)"/>
<path opacity="0.29169" fill-rule="evenodd" clip-rule="evenodd" d="M17.8116 18.968C20.5193 19.0838 23.2244 19.2318 25.9295 19.3855L34.0417 19.8828L42.149 20.4492L46.2009 20.7572L50.2503 21.0967L46.19 20.904L42.1322 20.6798L34.0202 20.1822L25.913 19.6152C23.2117 19.4138 20.5104 19.2073 17.8116 18.968Z" fill="#969BC6"/>
<path fill-rule="evenodd" clip-rule="evenodd" d="M54.8182 12.1556C54.8182 12.0322 62.6392 8.25757 62.6392 8.25757L64.6411 54.4049C64.6411 54.4049 57.8098 59.4106 55.8877 61.1079C55.651 61.3168 53.5836 63.7458 53.563 63.7709C53.465 63.8906 54.4047 51.9348 54.6947 36.7805C54.9332 24.3216 54.659 12.1556 54.8182 12.1556Z" fill="url(#paint7_linear_111_2520)" style="mix-blend-mode:multiply"/>
<path fill-rule="evenodd" clip-rule="evenodd" d="M54.5444 2.71171L54.6704 10.6253L54.6947 12.1555L62.8913 8.25744L62.5535 0.3125L54.5444 2.71171Z" fill="url(#paint8_linear_111_2520)"/>
<path fill-rule="evenodd" clip-rule="evenodd" d="M54.6497 5.04209C54.6747 5.81859 54.678 6.59542 54.6816 7.37226C54.6786 8.14876 54.675 8.92559 54.6503 9.70243C54.6278 10.4789 54.6013 11.2558 54.5445 12.0323C54.4877 11.2558 54.4612 10.4789 54.439 9.70243C54.414 8.92559 54.4107 8.14876 54.4074 7.37226C54.411 6.59542 54.4143 5.81859 54.4396 5.04209C54.4615 4.26525 54.4883 3.48875 54.5445 2.71191C54.601 3.48875 54.6275 4.26525 54.6497 5.04209Z" fill="#8A8FAF"/>
<path fill-rule="evenodd" clip-rule="evenodd" d="M15.1307 1.76726L24.4807 0L62.5535 0.312588L54.5444 2.73477L15.1307 1.76726Z" fill="url(#paint9_linear_111_2520)"/>
<path fill-rule="evenodd" clip-rule="evenodd" d="M14.7634 1.76733L19.6993 1.82175L24.6346 1.90443L34.5036 2.11399L44.3715 2.38759L49.3046 2.54664L54.2372 2.73485L49.3013 2.68103L44.3661 2.59835L34.497 2.38789L24.6292 2.11429L19.696 1.95494L14.7634 1.76733Z" fill="#A4A8C1"/>
<path fill-rule="evenodd" clip-rule="evenodd" d="M54.5327 2.63124C55.1698 2.35068 55.8335 2.14037 56.4919 1.9195C57.1511 1.6995 57.8178 1.50378 58.4846 1.30837C59.1537 1.12006 59.8228 0.932652 60.4996 0.768328L61.5149 0.523035C61.8566 0.45184 62.1951 0.370871 62.5398 0.30855C62.2158 0.436022 61.8857 0.545147 61.5594 0.664012L60.5697 0.989552C59.9094 1.2063 59.2426 1.40111 58.5761 1.59561C57.9067 1.78394 57.2379 1.97193 56.5626 2.13949L55.5499 2.39187C55.2098 2.4687 54.8708 2.54669 54.5327 2.63124Z" fill="#8589A3"/>
<path fill-rule="evenodd" clip-rule="evenodd" d="M15.7133 10.7544L54.6947 12.1556C54.6947 12.1556 54.5897 20.0325 54.4331 21.4396C54.2766 22.8467 15.1315 21.0968 15.406 19.4643C15.6805 17.8319 15.7133 10.7544 15.7133 10.7544Z" fill="url(#paint10_linear_111_2520)" style="mix-blend-mode:multiply"/>
<g opacity="0.615513">
<path fill-rule="evenodd" clip-rule="evenodd" d="M15.4045 57.7537C16.2487 57.7537 42.8238 62.1268 42.8238 62.1268C42.8238 62.1268 44.4244 59.8337 46.369 56.7352C47.8121 54.4359 49.5187 51.5801 50.5102 48.4049C52.8377 40.9511 54.2373 24.9419 54.2373 24.9419L53.8694 45.9032L53.5559 63.7719L15.1307 57.7537C15.1307 57.7537 14.5604 57.7537 15.4045 57.7537Z" fill="url(#paint11_linear_111_2520)" fill-opacity="0.11" style="mix-blend-mode:multiply"/>
</g>
<defs>
<linearGradient id="paint0_linear_111_2520" x1="41.2748" y1="-11.5215" x2="24.6997" y2="44.7299" gradientUnits="userSpaceOnUse">
<stop stop-color="#8D97BD"/>
<stop offset="1" stop-color="#C6CFE4"/>
</linearGradient>
<linearGradient id="paint1_linear_111_2520" x1="52.6368" y1="58.5265" x2="89.3618" y2="25.861" gradientUnits="userSpaceOnUse">
<stop stop-color="#D6DCEC"/>
<stop offset="1" stop-color="white"/>
</linearGradient>
<linearGradient id="paint2_linear_111_2520" x1="11.3045" y1="23.8271" x2="46.3567" y2="73.1904" gradientUnits="userSpaceOnUse">
<stop stop-color="#A4B0E1"/>
<stop offset="1" stop-color="#D8DEEC"/>
</linearGradient>
<linearGradient id="paint3_linear_111_2520" x1="-7.71787" y1="31.0202" x2="7.42733" y2="64.0666" gradientUnits="userSpaceOnUse">
<stop stop-color="#F4F7FD"/>
<stop offset="1" stop-color="#E6ECFB"/>
</linearGradient>
<linearGradient id="paint4_linear_111_2520" x1="43.0107" y1="-12.1288" x2="39.7345" y2="6.38271" gradientUnits="userSpaceOnUse">
<stop offset="0.154798" stop-color="#3C4265"/>
<stop offset="1" stop-color="#7C83AC"/>
</linearGradient>
<linearGradient id="paint5_linear_111_2520" x1="26.7685" y1="53.7999" x2="42.8122" y2="39.616" gradientUnits="userSpaceOnUse">
<stop stop-color="#E4E8FB"/>
<stop offset="1" stop-color="#A0A6C6"/>
</linearGradient>
<linearGradient id="paint6_linear_111_2520" x1="33.8466" y1="66.0254" x2="56.9822" y2="54.0392" gradientUnits="userSpaceOnUse">
<stop stop-color="#D9E0FF"/>
<stop offset="1" stop-color="#9DA3BD"/>
</linearGradient>
<linearGradient id="paint7_linear_111_2520" x1="53.0452" y1="5.64535" x2="46.3992" y2="62.4482" gradientUnits="userSpaceOnUse">
<stop stop-color="#AAB4D1"/>
<stop offset="0.999155" stop-color="white" stop-opacity="0.01"/>
</linearGradient>
<linearGradient id="paint8_linear_111_2520" x1="43.0863" y1="29.9014" x2="67.642" y2="24.507" gradientUnits="userSpaceOnUse">
<stop stop-color="#7A7CA5"/>
<stop offset="1" stop-color="#3D3F67"/>
</linearGradient>
<linearGradient id="paint9_linear_111_2520" x1="197.24" y1="4.63666" x2="197.301" y2="-14.7372" gradientUnits="userSpaceOnUse">
<stop stop-color="#9193B8"/>
<stop offset="1" stop-color="#3A3C61"/>
</linearGradient>
<linearGradient id="paint10_linear_111_2520" x1="9.8984" y1="8.02404" x2="9.80632" y2="21.8504" gradientUnits="userSpaceOnUse">
<stop stop-color="#AAB4D1"/>
<stop offset="1" stop-color="white" stop-opacity="0.01"/>
</linearGradient>
<linearGradient id="paint11_linear_111_2520" x1="48.9315" y1="46.5911" x2="53.4457" y2="48.1651" gradientUnits="userSpaceOnUse">
<stop stop-color="#93A2E1"/>
<stop offset="1" stop-color="white"/>
</linearGradient>
</defs>
</svg>
