<svg width="55" height="55" viewBox="0 0 55 55" fill="none" xmlns="http://www.w3.org/2000/svg">
<path d="M20.0196 22.8438H3.04062C1.67661 22.8438 0.570007 21.7249 0.570007 20.3458V3.17807C0.570007 1.79889 1.67663 0.679993 3.04062 0.679993H20.0196C21.3836 0.679993 22.4902 1.79892 22.4902 3.17807V20.3458C22.4902 21.725 21.3836 22.8438 20.0196 22.8438ZM3.04062 2.63206C2.74467 2.63206 2.50017 2.87926 2.50017 3.17852V20.3462C2.50017 20.6455 2.74466 20.8927 3.04062 20.8927H20.0196C20.3156 20.8927 20.5601 20.6455 20.5601 20.3462V3.17852C20.5601 2.87927 20.3156 2.63206 20.0196 2.63206H3.04062Z" fill="#40344E"/>
<path d="M20.0196 55H3.04062C1.67661 55 0.570007 53.8811 0.570007 52.5019V35.3342C0.570007 33.955 1.67663 32.8361 3.04062 32.8361H20.0196C21.3836 32.8361 22.4902 33.955 22.4902 35.3342V52.5019C22.4902 53.8811 21.3836 55 20.0196 55ZM3.04062 34.7882C2.74467 34.7882 2.50017 35.0354 2.50017 35.3346V52.5024C2.50017 52.8016 2.74466 53.0488 3.04062 53.0488H20.0196C20.3156 53.0488 20.5601 52.8016 20.5601 52.5024V35.3346C20.5601 35.0354 20.3156 34.7882 20.0196 34.7882H3.04062Z" fill="#40344E"/>
<path d="M27.3926 4.98657H55V6.93816H27.3926V4.98657Z" fill="#40344E"/>
<path d="M27.3926 16.5856H45.2399V18.5372H27.3926V16.5856Z" fill="#40344E"/>
<path d="M27.3926 37.1423H55V39.0939H27.3926V37.1423Z" fill="#40344E"/>
<path d="M27.3926 48.7417H45.2399V50.6933H27.3926V48.7417Z" fill="#40344E"/>
</svg>
