<svg width="48" height="48" viewBox="0 0 48 48" fill="none" xmlns="http://www.w3.org/2000/svg">
<circle cx="24" cy="24" r="24" fill="url(#paint0_linear_111_2459)" fill-opacity="0.3"/>
<path opacity="0.3" fill-rule="evenodd" clip-rule="evenodd" d="M16.6669 29.3333C15.5623 29.3333 14.6669 30.2287 14.6669 31.3333V33.9999C14.6669 35.1045 15.5623 35.9999 16.6669 35.9999H18.0002C19.1048 35.9999 20.0002 35.1045 20.0002 33.9999V31.3333C20.0002 30.2287 19.1048 29.3333 18.0002 29.3333H16.6669ZM29.9999 29.3333C28.8953 29.3333 27.9999 30.2287 27.9999 31.3333V33.9999C27.9999 35.1045 28.8953 35.9999 29.9999 35.9999H31.3332C32.4378 35.9999 33.3332 35.1045 33.3332 33.9999V31.3333C33.3332 30.2287 32.4378 29.3333 31.3332 29.3333H29.9999Z" fill="#532D94"/>
<path fill-rule="evenodd" clip-rule="evenodd" d="M14.6667 13.3333C13.1939 13.3333 12 14.5272 12 15.9999V30.6666C12 32.1393 13.1939 33.3333 14.6667 33.3333H33.3333C34.8061 33.3333 36 32.1393 36 30.6666V15.9999C36 14.5272 34.8061 13.3333 33.3333 13.3333H14.6667ZM33.3333 23.3333C33.3333 25.9106 31.244 27.9999 28.6667 27.9999C26.0893 27.9999 24 25.9106 24 23.3333C24 20.7559 26.0893 18.6666 28.6667 18.6666C31.244 18.6666 33.3333 20.7559 33.3333 23.3333ZM28.6668 25.3333C29.7714 25.3333 30.6668 24.4378 30.6668 23.3333C30.6668 22.2287 29.7714 21.3333 28.6668 21.3333C27.5623 21.3333 26.6668 22.2287 26.6668 23.3333C26.6668 24.4378 27.5623 25.3333 28.6668 25.3333ZM17.3333 18.6666C16.597 18.6666 16 19.2635 16 19.9999V22.6666C16 23.403 16.597 23.9999 17.3333 23.9999C18.0697 23.9999 18.6667 23.403 18.6667 22.6666V19.9999C18.6667 19.2635 18.0697 18.6666 17.3333 18.6666Z" fill="#532D94"/>
<defs>
<linearGradient id="paint0_linear_111_2459" x1="0" y1="0" x2="9.44417" y2="49.6733" gradientUnits="userSpaceOnUse">
<stop offset="0.00593653" stop-color="#4DA6AE" stop-opacity="0.4"/>
<stop offset="0.519118" stop-color="#4B7EA5" stop-opacity="0.3"/>
<stop offset="1" stop-color="#494899" stop-opacity="0.4"/>
</linearGradient>
</defs>
</svg>
