<svg width="29" height="28" viewBox="0 0 29 28" fill="none" xmlns="http://www.w3.org/2000/svg">
<path d="M9.19026 5.45998C9.10173 5.54852 9.03454 5.65524 8.97841 5.77223L8.97209 5.76591L0.10586 25.7386L0.114555 25.7473C-0.0498685 26.0659 0.225225 26.7141 0.78885 27.2785C1.35248 27.8421 2.00068 28.1172 2.31925 27.9528L2.32716 27.9607L22.2999 19.0937L22.2936 19.0866C22.4098 19.0313 22.5165 18.9641 22.6058 18.8739C23.8406 17.6392 21.8382 13.6353 18.1348 9.93104C14.4297 6.22677 10.4258 4.22522 9.19026 5.45998Z" fill="#DD2E44"/>
<path d="M10.2764 9.02661L0.32878 25.2366L0.10586 25.7385L0.114555 25.7472C-0.0498685 26.0658 0.225225 26.714 0.78885 27.2784C0.972246 27.4618 1.16276 27.6009 1.34931 27.7187L13.4384 12.9791L10.2764 9.02661Z" fill="#EA596E"/>
<path d="M18.1911 9.86933C21.8827 13.5625 23.9325 17.4992 22.7673 18.6628C21.6029 19.828 17.6662 17.7791 13.9722 14.0874C10.2798 10.3942 8.23079 6.45596 9.3952 5.29155C10.5604 4.12715 14.4971 6.17612 18.1911 9.86933Z" fill="#A0041E"/>
<path d="M14.6955 10.2986C14.5382 10.4259 14.3327 10.4923 14.1153 10.4686C13.4292 10.3943 12.8521 10.1555 12.4482 9.77846C12.0205 9.37926 11.8094 8.8433 11.8671 8.30655C11.9683 7.36428 12.9138 6.49947 14.5256 6.67338C15.1525 6.74058 15.4323 6.539 15.4418 6.44256C15.4528 6.34691 15.2228 6.09 14.5959 6.02201C13.9098 5.94771 13.3327 5.70898 12.928 5.33191C12.5003 4.93271 12.2885 4.39675 12.347 3.86C12.4497 2.91773 13.3944 2.05292 15.0046 2.22762C15.4615 2.27663 15.7026 2.18256 15.8046 2.12169C15.886 2.07189 15.9184 2.02446 15.9216 1.9968C15.9311 1.90115 15.7042 1.64423 15.0758 1.57625C14.6418 1.52882 14.3272 1.1399 14.3754 0.705122C14.422 0.271139 14.8102 -0.042689 15.2457 0.00474089C16.856 0.17786 17.5959 1.22369 17.4939 2.16675C17.3911 3.11061 16.4465 3.97383 14.8347 3.80071C14.3778 3.75091 14.139 3.84577 14.0363 3.90664C13.9549 3.95565 13.9217 4.00387 13.9185 4.03075C13.9082 4.12719 14.1367 4.38331 14.7651 4.45129C16.3754 4.6252 17.1153 5.67024 17.0133 6.6133C16.9113 7.55558 15.9667 8.42038 14.3556 8.24568C13.8987 8.19667 13.6584 8.29153 13.5557 8.35161C13.4734 8.4022 13.4418 8.44963 13.4387 8.47651C13.4284 8.57216 13.6568 8.82907 14.2845 8.89705C14.7177 8.94448 15.0331 9.3342 14.9849 9.76818C14.9627 9.98478 14.8529 10.1721 14.6955 10.2986Z" fill="#AA8DD8"/>
<path d="M24.2374 17.609C25.797 17.1687 26.8729 17.8643 27.129 18.7774C27.3851 19.6896 26.8302 20.8445 25.2713 21.2832C24.6627 21.454 24.4801 21.7449 24.5046 21.8374C24.5314 21.9307 24.8405 22.084 25.4476 21.9125C27.0065 21.4738 28.0824 22.1694 28.3385 23.0816C28.5962 23.9947 28.0397 25.148 26.48 25.5875C25.8721 25.7583 25.6887 26.05 25.7156 26.1424C25.7417 26.2349 26.05 26.3883 26.6579 26.2175C27.0768 26.0998 27.5148 26.344 27.6326 26.7638C27.7496 27.1843 27.5053 27.6207 27.0847 27.7392C25.5267 28.178 24.45 27.4839 24.1923 26.5701C23.9362 25.6579 24.4919 24.5045 26.0524 24.065C26.661 23.8935 26.8436 23.6034 26.8168 23.5101C26.7915 23.4176 26.4832 23.2634 25.8761 23.4342C24.3156 23.8737 23.2406 23.1797 22.9836 22.265C22.7267 21.3528 23.2825 20.1995 24.8421 19.7592C25.4492 19.5892 25.6318 19.2967 25.6065 19.205C25.5796 19.1118 25.2721 18.9584 24.6642 19.1291C24.2437 19.2477 23.8081 19.0027 23.6896 18.5829C23.5718 18.1639 23.8168 17.7276 24.2374 17.609Z" fill="#77B255"/>
<path d="M18.1821 15.4772C17.9497 15.4772 17.7205 15.3753 17.564 15.1808C17.2913 14.8393 17.3474 14.3421 17.6873 14.0694C17.8596 13.931 21.9702 10.7026 27.7796 11.5334C28.212 11.5951 28.5124 11.9951 28.4507 12.4275C28.3891 12.8591 27.9922 13.1627 27.5559 13.0978C22.4232 12.369 18.7126 15.2749 18.6762 15.3041C18.5292 15.4211 18.3553 15.4772 18.1821 15.4772Z" fill="#AA8DD8"/>
<path d="M4.54872 12.1887C4.47362 12.1887 4.39694 12.1776 4.32106 12.1555C3.90288 12.0298 3.66573 11.5895 3.79142 11.1713C4.68706 8.18875 5.4989 3.42916 4.50129 2.18808C4.38983 2.04737 4.22145 1.90903 3.83569 1.93828C3.0942 1.9952 3.16456 3.55959 3.16535 3.5754C3.19855 4.01097 2.87128 4.39041 2.43651 4.42282C1.99462 4.4497 1.62151 4.12875 1.5891 3.69319C1.50767 2.60309 1.8468 0.503528 3.71712 0.362029C4.55188 0.298789 5.24515 0.588902 5.73447 1.19759C7.60874 3.53035 5.70601 10.2931 5.30602 11.6258C5.20325 11.9681 4.88863 12.1887 4.54872 12.1887Z" fill="#77B255"/>
<path d="M20.1578 8.23624C20.8127 8.23624 21.3435 7.70536 21.3435 7.05049C21.3435 6.39562 20.8127 5.86475 20.1578 5.86475C19.5029 5.86475 18.972 6.39562 18.972 7.05049C18.972 7.70536 19.5029 8.23624 20.1578 8.23624Z" fill="#5C913B"/>
<path d="M1.581 15.3507C2.45416 15.3507 3.16199 14.6429 3.16199 13.7697C3.16199 12.8966 2.45416 12.1887 1.581 12.1887C0.707836 12.1887 0 12.8966 0 13.7697C0 14.6429 0.707836 15.3507 1.581 15.3507Z" fill="#9266CC"/>
<path d="M25.6916 16.141C26.3465 16.141 26.8774 15.6101 26.8774 14.9553C26.8774 14.3004 26.3465 13.7695 25.6916 13.7695C25.0367 13.7695 24.5059 14.3004 24.5059 14.9553C24.5059 15.6101 25.0367 16.141 25.6916 16.141Z" fill="#5C913B"/>
<path d="M18.5767 25.6271C19.2316 25.6271 19.7625 25.0962 19.7625 24.4414C19.7625 23.7865 19.2316 23.2556 18.5767 23.2556C17.9219 23.2556 17.391 23.7865 17.391 24.4414C17.391 25.0962 17.9219 25.6271 18.5767 25.6271Z" fill="#5C913B"/>
<path d="M22.1341 4.28382C23.0073 4.28382 23.7151 3.57598 23.7151 2.70282C23.7151 1.82966 23.0073 1.12183 22.1341 1.12183C21.2609 1.12183 20.5531 1.82966 20.5531 2.70282C20.5531 3.57598 21.2609 4.28382 22.1341 4.28382Z" fill="#FFCC4D"/>
<path d="M25.6916 7.44571C26.3465 7.44571 26.8774 6.91484 26.8774 6.25997C26.8774 5.6051 26.3465 5.07422 25.6916 5.07422C25.0367 5.07422 24.5059 5.6051 24.5059 6.25997C24.5059 6.91484 25.0367 7.44571 25.6916 7.44571Z" fill="#FFCC4D"/>
<path d="M23.3195 10.6076C23.9744 10.6076 24.5053 10.0767 24.5053 9.42183C24.5053 8.76696 23.9744 8.23608 23.3195 8.23608C22.6647 8.23608 22.1338 8.76696 22.1338 9.42183C22.1338 10.0767 22.6647 10.6076 23.3195 10.6076Z" fill="#FFCC4D"/>
<path d="M5.92891 19.3031C6.58378 19.3031 7.11466 18.7723 7.11466 18.1174C7.11466 17.4625 6.58378 16.9316 5.92891 16.9316C5.27404 16.9316 4.74316 17.4625 4.74316 18.1174C4.74316 18.7723 5.27404 19.3031 5.92891 19.3031Z" fill="#FFCC4D"/>
</svg>
