<svg width="118" height="118" viewBox="0 0 118 118" fill="none" xmlns="http://www.w3.org/2000/svg">
<g filter="url(#filter0_d_111_2545)">
<circle cx="59" cy="57" r="31" fill="#532D94"/>
</g>
<path fill-rule="evenodd" clip-rule="evenodd" d="M75.9446 67.2369C76.4705 67.7629 77.3698 67.3885 77.3671 66.6447L77.3393 58.8421V46.2105C77.3393 43.8851 75.4542 42 73.1288 42H53.4797C51.1543 42 49.2692 43.8851 49.2692 46.2105V52H60.667C63.4284 52 65.667 54.2386 65.667 57V63.0526H71.7603L75.9446 67.2369Z" fill="white"/>
<path opacity="0.3" fill-rule="evenodd" clip-rule="evenodd" d="M42.3081 66.9999V58.6666C42.3081 56.8256 43.8005 55.3333 45.6414 55.3333H58.9748C60.8157 55.3333 62.3081 56.8256 62.3081 58.6666V66.9999C62.3081 68.8409 60.8157 70.3333 58.9748 70.3333H45.8343L43.7612 72.3175C43.2312 72.8248 42.3517 72.4491 42.3517 71.7155V67.5404C42.323 67.3645 42.3081 67.1839 42.3081 66.9999ZM49 61.1666C49 60.7064 49.3731 60.3333 49.8333 60.3333H58.1667C58.6269 60.3333 59 60.7064 59 61.1666C59 61.6269 58.6269 61.9999 58.1667 61.9999H49.8333C49.3731 61.9999 49 61.6269 49 61.1666ZM54.8333 63.6667C54.3731 63.6667 54 64.0398 54 64.5001C54 64.9603 54.3731 65.3334 54.8333 65.3334H58.1667C58.6269 65.3334 59 64.9603 59 64.5001C59 64.0398 58.6269 63.6667 58.1667 63.6667H54.8333Z" fill="white"/>
<defs>
<filter id="filter0_d_111_2545" x="0.321426" y="0.535712" width="117.357" height="117.357" filterUnits="userSpaceOnUse" color-interpolation-filters="sRGB">
<feFlood flood-opacity="0" result="BackgroundImageFix"/>
<feColorMatrix in="SourceAlpha" type="matrix" values="0 0 0 0 0 0 0 0 0 0 0 0 0 0 0 0 0 0 127 0" result="hardAlpha"/>
<feOffset dy="2.21429"/>
<feGaussianBlur stdDeviation="13.8393"/>
<feColorMatrix type="matrix" values="0 0 0 0 0.151406 0 0 0 0 0.186404 0 0 0 0 0.323594 0 0 0 0.3 0"/>
<feBlend mode="normal" in2="BackgroundImageFix" result="effect1_dropShadow_111_2545"/>
<feBlend mode="normal" in="SourceGraphic" in2="effect1_dropShadow_111_2545" result="shape"/>
</filter>
</defs>
</svg>
