<svg width="32" height="36" viewBox="0 0 32 36" fill="none" xmlns="http://www.w3.org/2000/svg">
<rect x="5.3335" y="5.33331" width="5.33333" height="5.33333" rx="1" fill="#532D94"/>
<path fill-rule="evenodd" clip-rule="evenodd" d="M14.3335 5.33331C13.7812 5.33331 13.3335 5.78103 13.3335 6.33331V9.66665C13.3335 10.2189 13.7812 10.6666 14.3335 10.6666H17.6668C18.2191 10.6666 18.6668 10.2189 18.6668 9.66665V6.33331C18.6668 5.78103 18.2191 5.33331 17.6668 5.33331H14.3335ZM6.3335 13.3333C5.78121 13.3333 5.3335 13.781 5.3335 14.3333V17.6666C5.3335 18.2189 5.78121 18.6666 6.3335 18.6666H9.66683C10.2191 18.6666 10.6668 18.2189 10.6668 17.6666V14.3333C10.6668 13.781 10.2191 13.3333 9.66683 13.3333H6.3335ZM13.3335 14.3333C13.3335 13.781 13.7812 13.3333 14.3335 13.3333H17.6668C18.2191 13.3333 18.6668 13.781 18.6668 14.3333V17.6666C18.6668 18.2189 18.2191 18.6666 17.6668 18.6666H14.3335C13.7812 18.6666 13.3335 18.2189 13.3335 17.6666V14.3333ZM22.3335 5.33331C21.7812 5.33331 21.3335 5.78103 21.3335 6.33331V9.66665C21.3335 10.2189 21.7812 10.6666 22.3335 10.6666H25.6668C26.2191 10.6666 26.6668 10.2189 26.6668 9.66665V6.33331C26.6668 5.78103 26.2191 5.33331 25.6668 5.33331H22.3335ZM21.3335 14.3333C21.3335 13.781 21.7812 13.3333 22.3335 13.3333H25.6668C26.2191 13.3333 26.6668 13.781 26.6668 14.3333V17.6666C26.6668 18.2189 26.2191 18.6666 25.6668 18.6666H22.3335C21.7812 18.6666 21.3335 18.2189 21.3335 17.6666V14.3333ZM6.3335 21.3333C5.78121 21.3333 5.3335 21.781 5.3335 22.3333V25.6666C5.3335 26.2189 5.78121 26.6666 6.3335 26.6666H9.66683C10.2191 26.6666 10.6668 26.2189 10.6668 25.6666V22.3333C10.6668 21.781 10.2191 21.3333 9.66683 21.3333H6.3335ZM13.3335 22.3333C13.3335 21.781 13.7812 21.3333 14.3335 21.3333H17.6668C18.2191 21.3333 18.6668 21.781 18.6668 22.3333V25.6666C18.6668 26.2189 18.2191 26.6666 17.6668 26.6666H14.3335C13.7812 26.6666 13.3335 26.2189 13.3335 25.6666V22.3333ZM22.3335 21.3333C21.7812 21.3333 21.3335 21.781 21.3335 22.3333V25.6666C21.3335 26.2189 21.7812 26.6666 22.3335 26.6666H25.6668C26.2191 26.6666 26.6668 26.2189 26.6668 25.6666V22.3333C26.6668 21.781 26.2191 21.3333 25.6668 21.3333H22.3335Z" fill="#532D94"/>
<g clip-path="url(#clip0_111_4442)">
<path d="M14.6522 18C15.6365 18 16.4783 18.726 16.4783 19.575V23.0854C17.1886 22.5109 18.5518 22.4404 19.4342 23.3068C20.3855 22.8045 21.6433 23.2314 22.0307 23.8852C24.0782 23.5697 25 24.6567 25 26.4375C25 26.534 24.9915 26.9042 24.9919 27C24.9989 29.1787 23.6975 29.7033 23.3954 31.3499C23.3201 31.7603 22.9 32.0625 22.4078 32.0625H15.2609L15.2608 32.0624C14.4956 32.062 13.7655 31.6895 13.434 31.0617C12.8925 30.0462 11.3907 27.7074 10.2122 27.2812C9.45404 27.0071 9.00033 26.5295 9 25.875C8.99942 24.6719 10.4624 23.8447 11.7878 24.3239C12.1361 24.4499 12.4824 24.6162 12.8261 24.8215V19.575C12.8261 18.7506 13.682 18 14.6522 18ZM14.6667 32.625H22.6667C23.219 32.625 23.6667 33.0028 23.6667 33.4688V35.1562C23.6667 35.6222 23.219 36 22.6667 36H14.6667C14.1144 36 13.6667 35.6222 13.6667 35.1562V33.4688C13.6667 33.0028 14.1144 32.625 14.6667 32.625ZM21.6667 33.6094C21.2064 33.6094 20.8333 33.9242 20.8333 34.3125C20.8333 34.7008 21.2064 35.0156 21.6667 35.0156C22.1269 35.0156 22.5 34.7008 22.5 34.3125C22.5 33.9242 22.1269 33.6094 21.6667 33.6094Z" fill="#716E89"/>
</g>
<defs>
<clipPath id="clip0_111_4442">
<rect width="16" height="18" fill="white" transform="translate(8 18)"/>
</clipPath>
</defs>
</svg>
