<svg width="20" height="20" viewBox="0 0 20 20" fill="none" xmlns="http://www.w3.org/2000/svg">
<path opacity="0.4" fill-rule="evenodd" clip-rule="evenodd" d="M6.66642 2.5H4.99992C4.07944 2.5 3.33325 3.24619 3.33325 4.16667V17.5C3.33325 18.4205 4.07944 19.1667 4.99992 19.1667H14.9999C15.9204 19.1667 16.6666 18.4205 16.6666 17.5V4.16667C16.6666 3.24619 15.9204 2.5 14.9999 2.5H13.3331V2.91667C13.3331 3.60702 12.7734 4.16667 12.0831 4.16667H7.91642C7.22607 4.16667 6.66642 3.60702 6.66642 2.91667V2.5Z" fill="#716E89"/>
<path fill-rule="evenodd" clip-rule="evenodd" d="M9.16667 1.66671L7.91667 1.66671C7.68655 1.66671 7.5 1.85325 7.5 2.08337V2.91671C7.5 3.14683 7.68655 3.33337 7.91667 3.33337H12.0833C12.3135 3.33337 12.5 3.14683 12.5 2.91671V2.08337C12.5 1.85326 12.3135 1.66671 12.0833 1.66671L10.8333 1.66671C10.8333 1.20647 10.4602 0.833374 10 0.833374C9.53976 0.833374 9.16667 1.20647 9.16667 1.66671Z" fill="#716E89"/>
<rect opacity="0.3" x="8.33325" y="7.5" width="5.83333" height="1.66667" rx="0.833333" fill="#716E89"/>
<rect opacity="0.3" x="5.83325" y="7.5" width="1.66667" height="1.66667" rx="0.833333" fill="#716E89"/>
<rect opacity="0.3" x="5.83325" y="10.8334" width="1.66667" height="1.66667" rx="0.833333" fill="#716E89"/>
<rect opacity="0.3" x="8.33325" y="10.8334" width="5.83333" height="1.66667" rx="0.833333" fill="#716E89"/>
<rect opacity="0.3" x="5.83325" y="14.1666" width="1.66667" height="1.66667" rx="0.833333" fill="#716E89"/>
<rect opacity="0.3" x="8.33325" y="14.1666" width="5.83333" height="1.66667" rx="0.833333" fill="#716E89"/>
</svg>
