<svg width="20" height="20" viewBox="0 0 20 20" fill="none" xmlns="http://www.w3.org/2000/svg">
<path fill-rule="evenodd" clip-rule="evenodd" d="M11.886 10.0005L18.9433 2.94314C19.4647 2.42181 19.4647 1.57914 18.9433 1.05781C18.422 0.536476 17.5793 0.536476 17.058 1.05781L10.0007 8.11514L2.94333 1.05781C2.42199 0.536476 1.57933 0.536476 1.05799 1.05781C0.536659 1.57914 0.536659 2.42181 1.05799 2.94314L8.11532 10.0005L1.05799 17.0578C0.536659 17.5791 0.536659 18.4218 1.05799 18.9431C1.31799 19.2031 1.65933 19.3338 2.00066 19.3338C2.34199 19.3338 2.68333 19.2031 2.94333 18.9431L10.0007 11.8858L17.058 18.9431C17.318 19.2031 17.6593 19.3338 18.0007 19.3338C18.342 19.3338 18.6833 19.2031 18.9433 18.9431C19.4647 18.4218 19.4647 17.5791 18.9433 17.0578L11.886 10.0005Z" fill="#160C35"/>
</svg>
