<svg width="19" height="19" viewBox="0 0 19 19" fill="none" xmlns="http://www.w3.org/2000/svg">
<path d="M9.02492 18.0098H6.01659C2.54117 18.0098 0.989502 16.4581 0.989502 12.9827V9.97435C0.989502 6.49893 2.54117 4.94727 6.01659 4.94727H8.39159C8.71617 4.94727 8.98534 5.21643 8.98534 5.54102C8.98534 5.8656 8.71617 6.13477 8.39159 6.13477H6.01659C3.18242 6.13477 2.177 7.14018 2.177 9.97435V12.9827C2.177 15.8168 3.18242 16.8223 6.01659 16.8223H9.02492C11.8591 16.8223 12.8645 15.8168 12.8645 12.9827V10.6077C12.8645 10.2831 13.1337 10.0139 13.4583 10.0139C13.7828 10.0139 14.052 10.2831 14.052 10.6077V12.9827C14.052 16.4581 12.5003 18.0098 9.02492 18.0098Z" fill="#3C0280"/>
<path d="M13.458 11.2022H10.9247C8.70011 11.2022 7.79761 10.2997 7.79761 8.07513V5.5418C7.79761 5.3043 7.94011 5.08263 8.16177 4.99555C8.38344 4.90055 8.63677 4.95597 8.81094 5.12222L13.8776 10.1889C14.0439 10.3551 14.0993 10.6164 14.0043 10.838C13.9172 11.0597 13.6955 11.2022 13.458 11.2022ZM8.98511 6.97472V8.07513C8.98511 9.65055 9.34927 10.0147 10.9247 10.0147H12.0251L8.98511 6.97472Z" fill="#3C0280"/>
<path d="M12.3498 2.17773H9.18311C8.85852 2.17773 8.58936 1.90857 8.58936 1.58398C8.58936 1.2594 8.85852 0.990234 9.18311 0.990234H12.3498C12.6744 0.990234 12.9435 1.2594 12.9435 1.58398C12.9435 1.90857 12.6744 2.17773 12.3498 2.17773Z" fill="#3C0280"/>
<path d="M5.54175 4.55273C5.21716 4.55273 4.948 4.28357 4.948 3.95898C4.948 2.32023 6.278 0.990234 7.91675 0.990234H9.99091C10.3155 0.990234 10.5847 1.2594 10.5847 1.58398C10.5847 1.90857 10.3155 2.17773 9.99091 2.17773H7.91675C6.93508 2.17773 6.1355 2.97732 6.1355 3.95898C6.1355 4.28357 5.86633 4.55273 5.54175 4.55273Z" fill="#3C0280"/>
<path d="M15.1917 13.6569C15.0857 13.6569 14.9937 13.565 14.9937 13.459C14.9937 13.353 15.0857 13.2611 15.1917 13.2611C16.314 13.2611 17.2183 12.3463 17.2183 11.2344V6.33398C17.2183 6.22801 17.3103 6.13607 17.4162 6.13607C17.5222 6.13607 17.6142 6.22801 17.6142 6.33398V11.2344C17.6142 12.5675 16.5247 13.6569 15.1917 13.6569Z" fill="#3C0280" stroke="#3C0280" stroke-width="0.791667"/>
<path d="M17.4167 6.92657H15.0417C12.9359 6.92657 12.073 6.06365 12.073 3.95782V1.58282C12.073 1.34532 12.2155 1.12365 12.4372 1.03657C12.6588 0.941566 12.9122 0.996982 13.0863 1.16323L17.8363 5.91323C18.0026 6.07948 18.058 6.34073 17.963 6.5624C17.8759 6.78407 17.6542 6.92657 17.4167 6.92657ZM13.2605 3.01573V3.95782C13.2605 5.40657 13.593 5.73907 15.0417 5.73907H15.9838L13.2605 3.01573Z" fill="#3C0280"/>
</svg>
