<svg width="18" height="18" viewBox="0 0 18 18" fill="none" xmlns="http://www.w3.org/2000/svg">
<path d="M8.99998 8.1665C8.53982 8.1665 8.16638 8.53994 8.16638 9.0001V12.3337C8.16638 12.7939 8.53982 13.1665 8.99998 13.1665C9.46014 13.1665 9.83358 12.7939 9.83358 12.3337V9.0001C9.83358 8.779 9.7453 8.56728 9.58904 8.41104C9.43279 8.2548 9.22108 8.1665 8.99998 8.1665Z" fill="#0084F4"/>
<path d="M9.83368 6.5002C9.83368 7.61114 8.1665 7.61114 8.1665 6.5002C8.1665 5.38926 9.83368 5.38926 9.83368 6.5002Z" fill="#0084F4"/>
<path d="M8.99998 0.666504C6.78978 0.666504 4.67038 1.54462 3.10778 3.1079C1.5445 4.6704 0.666382 6.78991 0.666382 9.0001C0.666382 11.2103 1.5445 13.3297 3.10778 14.8923C4.67028 16.4556 6.78978 17.3337 8.99998 17.3337C11.2102 17.3337 13.3296 16.4556 14.8922 14.8923C16.4555 13.3298 17.3336 11.2103 17.3336 9.0001C17.3336 6.78991 16.4555 4.6705 14.8922 3.1079C13.3297 1.54462 11.2102 0.666504 8.99998 0.666504ZM8.99998 15.6665C7.23202 15.6665 5.53598 14.9642 4.28598 13.7142C3.03598 12.4642 2.33364 10.7682 2.33364 9.00016C2.33364 7.23216 3.03598 5.53616 4.28598 4.28616C5.53598 3.03616 7.23198 2.33382 8.99998 2.33382C10.768 2.33382 12.464 3.03616 13.714 4.28616C14.964 5.53616 15.6663 7.23216 15.6663 9.00016C15.6663 10.7682 14.964 12.4642 13.714 13.7142C12.464 14.9642 10.768 15.6665 8.99998 15.6665Z" fill="#0084F4"/>
</svg>
