<svg width="59" height="58" viewBox="0 0 59 58" fill="none" xmlns="http://www.w3.org/2000/svg">
<path d="M29.5 1.93333C36.8023 1.93333 43.8053 4.78511 48.9689 9.86107C54.1323 14.9371 57.0333 21.8214 57.0333 29C57.0333 36.1786 54.1324 43.0629 48.9689 48.1389C43.8053 53.2148 36.8023 56.0667 29.5 56.0667C22.1977 56.0667 15.1947 53.2149 10.0311 48.1389C4.86772 43.0629 1.96667 36.1786 1.96667 29C1.96667 21.8214 4.86761 14.9371 10.0311 9.86107C15.1947 4.78521 22.1977 1.93333 29.5 1.93333ZM29.5 0C21.6759 0 14.1726 3.05547 8.64022 8.49378C3.10788 13.9324 0 21.3086 0 29C0 36.6914 3.10815 44.0676 8.64022 49.5062C14.1726 54.9448 21.6759 58 29.5 58C37.3241 58 44.8274 54.9445 50.3598 49.5062C55.8921 44.0676 59 36.6914 59 29C59 23.9095 57.6368 18.9085 55.0477 14.5C52.4585 10.0915 48.7347 6.43048 44.2501 3.88546C39.7656 1.34018 34.6785 0.000107348 29.5001 0.000107348L29.5 0Z" fill="#FCBA03"/>
<path d="M27.5858 26.7058C27.2405 24.9873 26.9827 23.6082 26.8122 22.5685C26.6417 21.5289 26.5303 20.7684 26.4778 20.2872C26.4298 19.7931 26.4057 19.3635 26.4057 18.9983C26.3731 18.2137 26.6806 17.4526 27.2514 16.9038C27.8817 16.3903 28.6748 16.1092 29.4933 16.1092C30.3121 16.1092 31.1051 16.3903 31.7355 16.9038C32.3063 17.4526 32.6136 18.2137 32.581 18.9983C32.581 19.3591 32.5569 19.7888 32.5089 20.2872C32.4608 20.7854 32.3537 21.5416 32.1877 22.5555C32.0172 23.578 31.7594 24.9571 31.4141 26.6928C31.0689 28.4285 30.6034 30.7227 30.0179 33.5755H28.982C28.3965 30.7313 27.9311 28.4415 27.5858 26.7057L27.5858 26.7058ZM27.363 36.9396H27.3628C27.9283 36.3845 28.6948 36.073 29.494 36.073C30.293 36.0732 31.0592 36.3851 31.6248 36.9402C32.1901 37.4955 32.508 38.2483 32.5089 39.034C32.5283 39.8087 32.2054 40.5536 31.624 41.0768C31.0414 41.6012 30.2802 41.8922 29.4902 41.8922C28.7002 41.8922 27.939 41.6013 27.3564 41.0768C26.7749 40.5536 26.452 39.8087 26.4712 39.034C26.461 38.2414 26.7864 37.4805 27.3694 36.933L27.363 36.9396Z" fill="#FCBA03"/>
</svg>
