<svg width="60" height="60" viewBox="0 0 60 60" fill="none" xmlns="http://www.w3.org/2000/svg">
<circle cx="30" cy="30" r="29.2" stroke="#E93C3C" stroke-width="1.6"/>
<path d="M43.1719 33.5274L42.0984 31.6664L38.5664 33.7031L32.1536 30L38.5664 26.2968L42.0938 28.3312L43.1696 26.4702L40.718 25.0569L44.4563 22.896L43.3829 21.0373L39.6399 23.1983V20.3577H37.4907V24.4381L31.0641 28.1483V20.7305L34.6031 18.6868L33.5297 16.8258L31.064 18.2485V13.929H28.9172V18.2438L26.468 16.8282L25.3922 18.6891L28.9172 20.7258V28.1322L22.5026 24.4267V20.358H20.3534V23.1893L16.6174 21.0307L15.5439 22.8916L19.2846 25.0503L16.826 26.4706L17.9018 28.3315L21.4338 26.2925L27.8556 30.0003L21.4338 33.7105L17.8994 31.6691L16.8236 33.5301L19.2846 34.9504L15.5463 37.109L16.6221 38.9676L20.3534 36.8137V39.6426H22.5026V35.5739L28.9172 31.8684V39.2772L25.3945 41.3092L26.4703 43.1702L28.9172 41.7569V46.0717H31.064V41.7522L33.5273 43.1749L34.6008 41.3116L31.0641 39.2725V31.8547L37.4907 35.5626V39.643H39.6399V36.8047L43.3805 38.9634L44.454 37.1024L40.718 34.9461L43.1719 33.5274Z" fill="#E93C3C"/>
</svg>
