<svg width="24" height="24" viewBox="0 0 24 24" fill="none" xmlns="http://www.w3.org/2000/svg">
<path fill-rule="evenodd" clip-rule="evenodd" d="M3 7C3 6.44772 3.44772 6 4 6H20C20.5523 6 21 6.44772 21 7V8C21 8.55228 20.5523 9 20 9H4C3.44772 9 3 8.55228 3 8V7ZM4.00003 12.0001C4.00003 11.4478 4.44775 11.0001 5.00003 11.0001H10C10.5523 11.0001 11 11.4478 11 12.0001V19.0001C11 19.5523 10.5523 20.0001 10 20.0001H5.00003C4.44775 20.0001 4.00003 19.5523 4.00003 19.0001V12.0001ZM14 11.0001C13.4477 11.0001 13 11.4478 13 12.0001V19.0001C13 19.5523 13.4477 20.0001 14 20.0001H19C19.5523 20.0001 20 19.5523 20 19.0001V12.0001C20 11.4478 19.5523 11.0001 19 11.0001H14Z" fill="#716E89"/>
<path opacity="0.4" d="M14.4453 2.16793C14.9048 1.86158 15.5257 1.98576 15.832 2.44528C16.1384 2.90481 16.0142 3.52568 15.5547 3.83203L12 6.20183L8.44528 3.83203C7.98576 3.52568 7.86158 2.90481 8.16793 2.44528C8.47429 1.98576 9.09516 1.86158 9.55468 2.16793L12 3.79813L14.4453 2.16793Z" fill="#716E89"/>
</svg>
