<svg width="21" height="20" viewBox="0 0 21 20" fill="none" xmlns="http://www.w3.org/2000/svg">
<path opacity="0.4" fill-rule="evenodd" clip-rule="evenodd" d="M3.9985 3C3.53826 3 3.16516 3.3731 3.16516 3.83333L3.16516 12.1667C3.16516 12.6269 3.53826 13 3.9985 13L6.08289 13C5.49095 12.2096 5.25458 11.1651 5.53 10.1373C6.00647 8.35907 7.83426 7.30379 9.61248 7.78027C11.3907 8.25674 12.446 10.0845 11.9695 11.8627C11.8559 12.2865 11.6656 12.6693 11.4175 13L19.8318 13C20.2921 13 20.6652 12.6269 20.6652 12.1667L20.6652 3.83333C20.6652 3.3731 20.2921 3 19.8318 3L3.9985 3Z" fill="#716E89"/>
<path fill-rule="evenodd" clip-rule="evenodd" d="M0.833333 6C0.373096 6 0 6.3731 0 6.83333V15.1667C0 15.6269 0.373097 16 0.833334 16H16.6667C17.1269 16 17.5 15.6269 17.5 15.1667V6.83333C17.5 6.3731 17.1269 6 16.6667 6H0.833333ZM12.0832 11C12.0832 12.8409 10.5908 14.3333 8.74984 14.3333C6.90889 14.3333 5.4165 12.8409 5.4165 11C5.4165 9.15905 6.90889 7.66667 8.74984 7.66667C10.5908 7.66667 12.0832 9.15905 12.0832 11ZM8.74984 12.6667C9.67031 12.6667 10.4165 11.9205 10.4165 11C10.4165 10.0795 9.67031 9.33333 8.74984 9.33333C7.82936 9.33333 7.08317 10.0795 7.08317 11C7.08317 11.9205 7.82936 12.6667 8.74984 12.6667Z" fill="#716E89"/>
</svg>
