<svg width="42" height="53" viewBox="0 0 42 53" fill="none" xmlns="http://www.w3.org/2000/svg">
<path d="M20.2186 11.8954C15.0615 12.2522 15.3301 20.5942 14.9809 24.0592C14.8927 24.9302 16.2357 25.2103 16.3239 24.3431C16.6155 21.4576 16.4237 17.5513 18.0238 15.0111C18.5188 14.2437 19.1097 13.4763 20.1227 13.388C20.4335 13.3771 20.7431 13.4304 21.0323 13.5447C21.3215 13.6589 21.584 13.8315 21.8034 14.0518C22.2562 14.4586 22.4941 16.074 22.5708 16.5537C22.8394 18.3414 22.8704 20.1568 22.6629 21.9526C22.5708 22.8236 23.91 23.1037 24.0059 22.2365C24.2899 19.493 24.8156 11.5615 20.2186 11.8954Z" fill="#F9A43E"/>
<path d="M12.0302 26.2732L27.9352 17.4784L27.4172 30.5401L15.261 31.7028L12.0302 26.2732Z" fill="#64359B"/>
<path d="M17.7207 28.2108L20.1765 52.9069L35.0455 43.9855L32.5897 20.713L17.7207 28.2108Z" fill="#8D57C1"/>
<path d="M17.7208 28.211L16.0401 26.2732H12.0303L10.3496 47.865L14.6664 49.8526L20.1766 52.907L17.7208 28.211Z" fill="#7141AA"/>
<path d="M26.8571 16.0087C21.6846 16.0548 21.4543 24.4006 20.9018 27.8387C20.7636 28.7021 22.0836 29.0743 22.2218 28.2032C22.6861 25.3407 22.7244 21.4306 24.478 18.994C25.1956 17.9964 26.4542 17.1522 27.6936 17.8083C28.8025 18.3954 28.8179 19.7077 28.9291 20.8052C29.0893 22.606 29.0106 24.4201 28.6951 26.2002C28.5531 27.0636 29.8731 27.4358 30.0151 26.5648C30.4678 23.8519 31.4655 15.9665 26.8571 16.0087Z" fill="#F9A43E"/>
<path d="M31.1433 2.68591C31.1433 2.68591 31.7188 6.59599 28.2347 6.9682C28.2347 6.9682 30.9207 7.62819 31.1433 9.87677C31.1433 9.87677 31.7457 7.24063 33.9444 6.9682C33.9444 6.9682 31.3428 7.45168 31.1433 2.68591Z" fill="#F4BA14"/>
<path d="M20.2456 0C20.2456 0 20.8212 3.91008 17.337 4.28228C17.337 4.28228 20.0231 4.94228 20.2456 7.19086C20.2456 7.19086 20.848 4.55472 23.0467 4.28228C23.0467 4.28228 20.4451 4.76577 20.2456 0Z" fill="#F4BA14"/>
<path d="M38.9086 12C38.9086 12 39.4842 15.9101 36 16.2823C36 16.2823 38.686 16.9423 38.9086 19.1909C38.9086 19.1909 39.511 16.5547 41.7097 16.2823C41.7097 16.2861 39.1081 16.7658 38.9086 12Z" fill="#F4BA14"/>
<path d="M2.90858 15C2.90858 15 3.48415 18.9101 0 19.2823C0 19.2823 2.68602 19.9423 2.90858 22.1909C2.90858 22.1909 3.51101 19.5547 5.70971 19.2823C5.70971 19.2823 3.10811 19.7619 2.90858 15Z" fill="#F4BA14"/>
<path d="M8.90858 6C8.90858 6 9.48415 9.91008 6 10.2823C6 10.2823 8.68602 10.9423 8.90858 13.1909C8.90858 13.1909 9.51101 10.5547 11.7097 10.2823C11.7097 10.29 9.10811 10.7696 8.90858 6Z" fill="#F4BA14"/>
</svg>
