<svg width="24" height="24" viewBox="0 0 24 24" fill="none" xmlns="http://www.w3.org/2000/svg">
<path opacity="0.3" fill-rule="evenodd" clip-rule="evenodd" d="M12 22C17.5228 22 22 17.5228 22 12C22 6.47715 17.5228 2 12 2C6.47715 2 2 6.47715 2 12C2 17.5228 6.47715 22 12 22Z" fill="#532D94"/>
<path fill-rule="evenodd" clip-rule="evenodd" d="M10.5909 13.2091V14.8681H11.8509C14.3919 14.8681 16.3869 12.9151 16.3869 10.3951C16.3869 7.87512 14.3919 5.92212 11.8509 5.92212C9.30994 5.92212 7.33594 7.87512 7.33594 10.3951H9.12094C9.12094 8.79912 10.2339 7.58112 11.8509 7.58112C13.4469 7.58112 14.6019 8.79912 14.6019 10.3951C14.6019 11.9911 13.4469 13.2091 11.8509 13.2091H10.5909ZM11.9999 16.0001C11.4477 16.0001 10.9999 16.4478 10.9999 17.0001C10.9999 17.5524 11.4477 18.0001 11.9999 18.0001C12.5522 18.0001 12.9999 17.5524 12.9999 17.0001C12.9999 16.4478 12.5522 16.0001 11.9999 16.0001Z" fill="#532D94"/>
</svg>
