<svg width="48" height="48" viewBox="0 0 48 48" fill="none" xmlns="http://www.w3.org/2000/svg">
<circle cx="24" cy="24" r="24" fill="url(#paint0_linear_111_2442)" fill-opacity="0.3"/>
<path fill-rule="evenodd" clip-rule="evenodd" d="M18.6669 15.6957C18.6669 15.212 19.166 14.8893 19.6071 15.0878L38.0609 23.392C38.5851 23.6279 38.5851 24.3721 38.0609 24.6079L19.6071 32.9121C19.166 33.1107 18.6669 32.788 18.6669 32.3042V25.5559L35.2629 24L18.6669 22.4441V15.6957Z" fill="#532D94"/>
<path opacity="0.3" fill-rule="evenodd" clip-rule="evenodd" d="M13.3333 16C12.597 16 12 16.597 12 17.3333C12 18.0697 12.597 18.6667 13.3333 18.6667H14.6667C15.403 18.6667 16 18.0697 16 17.3333C16 16.597 15.403 16 14.6667 16H13.3333ZM8 24C8 23.2636 8.59695 22.6667 9.33333 22.6667H14.6667C15.403 22.6667 16 23.2636 16 24C16 24.7364 15.403 25.3333 14.6667 25.3333H9.33333C8.59695 25.3333 8 24.7364 8 24ZM12 30.6667C12 29.9303 12.597 29.3333 13.3333 29.3333H14.6667C15.403 29.3333 16 29.9303 16 30.6667C16 31.403 15.403 32 14.6667 32H13.3333C12.597 32 12 31.403 12 30.6667Z" fill="#532D94"/>
<defs>
<linearGradient id="paint0_linear_111_2442" x1="0" y1="0" x2="9.44417" y2="49.6733" gradientUnits="userSpaceOnUse">
<stop offset="0.00593653" stop-color="#4DA6AE" stop-opacity="0.4"/>
<stop offset="0.519118" stop-color="#4B7EA5" stop-opacity="0.3"/>
<stop offset="1" stop-color="#494899" stop-opacity="0.4"/>
</linearGradient>
</defs>
</svg>
