<svg width="32" height="33" viewBox="0 0 32 33" fill="none" xmlns="http://www.w3.org/2000/svg">
<path d="M26.5554 23.3186C24.5135 23.3186 22.6987 24.3833 21.791 25.9038L9.99329 19.0603C10.5037 18.3 10.8439 17.438 10.8439 16.4751C10.8439 15.7149 10.6172 14.9543 10.2766 14.2956L22.131 7.503C23.0952 8.77028 24.7404 9.63204 26.6117 9.63204C29.5612 9.63204 32 7.503 32 4.81644C32 2.12989 29.6178 0.000854492 26.6117 0.000854492C23.6056 0.000854492 21.2234 2.12989 21.2234 4.81644C21.2234 5.62759 21.4501 6.38779 21.8474 7.04696L9.93617 13.8901C8.97198 12.5722 7.32685 11.7106 5.45549 11.7106C2.50596 11.7106 0.0671997 13.8396 0.0671997 16.5262C0.0671997 19.2127 2.44944 21.3417 5.45549 21.3417C7.15719 21.3417 8.63171 20.6321 9.65287 19.5169L21.5641 26.4109C21.3374 26.9685 21.1668 27.5261 21.1668 28.1853C21.1668 30.8213 23.5491 33.0009 26.5551 33.0009C29.5613 33.0009 31.9434 30.8718 31.9434 28.1853C31.9434 25.4983 29.5047 23.3187 26.5551 23.3187L26.5554 23.3186ZM26.5554 0.558189C29.2213 0.558189 31.3768 2.48455 31.3768 4.86714C31.3768 7.24963 29.2214 9.17608 26.5554 9.17608C23.8896 9.17608 21.734 7.24972 21.734 4.86714C21.734 2.48464 23.8895 0.558189 26.5554 0.558189ZM5.45559 20.7841C2.78976 20.7841 0.634197 18.8577 0.634197 16.4751C0.634197 14.0925 2.78966 12.1662 5.45559 12.1662C8.12143 12.1662 10.277 14.0925 10.277 16.4751C10.277 18.8577 8.12153 20.7841 5.45559 20.7841V20.7841ZM26.5554 32.3924C23.8896 32.3924 21.734 30.466 21.734 28.0834C21.734 25.7009 23.8895 23.7745 26.5554 23.7745C29.2213 23.7745 31.3768 25.7008 31.3768 28.0834C31.3768 30.4659 29.2214 32.3924 26.5554 32.3924Z" fill="black"/>
</svg>
