<svg width="160" height="128" viewBox="0 0 160 128" fill="none" xmlns="http://www.w3.org/2000/svg">
<path fill-rule="evenodd" clip-rule="evenodd" d="M35.8399 81.28C35.8399 83.7542 37.8456 85.76 40.3199 85.76H133.76C136.234 85.76 138.24 83.7542 138.24 81.28C138.24 78.8057 136.234 76.8 133.76 76.8H129.92C127.446 76.8 125.44 74.7942 125.44 72.32C125.44 69.8457 127.446 67.84 129.92 67.84H142.08C144.554 67.84 146.56 65.8342 146.56 63.36C146.56 60.8857 144.554 58.88 142.08 58.88H128C130.474 58.88 132.48 56.8742 132.48 54.4C132.48 51.9257 130.474 49.92 128 49.92H87.0399C89.5141 49.92 91.5199 47.9142 91.5199 45.44C91.5199 42.9657 89.5141 40.96 87.0399 40.96H50.5599C48.0856 40.96 46.0799 42.9657 46.0799 45.44C46.0799 47.9142 48.0856 49.92 50.5599 49.92H24.9599C22.4856 49.92 20.4799 51.9257 20.4799 54.4C20.4799 56.8742 22.4856 58.88 24.9599 58.88H40.9599C43.4341 58.88 45.4399 60.8857 45.4399 63.36C45.4399 65.8342 43.4341 67.84 40.9599 67.84H15.3599C12.8856 67.84 10.8799 69.8457 10.8799 72.32C10.8799 74.7942 12.8856 76.8 15.3599 76.8H40.3199C37.8456 76.8 35.8399 78.8057 35.8399 81.28ZM149.12 81.2799C149.12 83.7541 147.114 85.7599 144.64 85.7599C142.166 85.7599 140.16 83.7541 140.16 81.2799C140.16 78.8056 142.166 76.7999 144.64 76.7999C147.114 76.7999 149.12 78.8056 149.12 81.2799Z" fill="#F3F7FF"/>
<path fill-rule="evenodd" clip-rule="evenodd" d="M100.399 90.9564C102.343 89.7052 104.072 88.1441 105.197 86.8838L100.399 90.9564ZM107.011 84.7895C107.942 83.65 108.778 82.4584 109.52 81.2251C111.152 78.5125 112.328 75.5983 113.047 72.5937C113.775 69.555 114.034 66.4239 113.823 63.3155C113.64 60.6032 113.099 57.9083 112.199 55.3073C111.306 52.7268 110.059 50.2388 108.459 47.9179C107.505 46.535 106.426 45.2114 105.22 43.963C103.45 42.1301 101.509 40.5631 99.446 39.263C97.2295 37.8661 94.8729 36.7774 92.4383 35.9979C89.3892 35.0218 86.2177 34.5307 83.0458 34.5271C80.5778 34.5244 78.1095 34.8167 75.6984 35.4052C72.9839 36.0678 70.3419 37.1058 67.8543 38.5208C65.6675 39.7646 63.6 41.2998 61.7075 43.1274C59.3292 45.4241 57.4028 48.013 55.9299 50.7838C54.4879 53.4965 53.4806 56.3834 52.9098 59.3409C52.3216 62.3878 52.1967 65.5097 52.5367 68.593C52.9775 72.5894 54.1994 76.5211 56.2063 80.1411C57.4904 82.4575 59.096 84.6463 61.024 86.6428C64.0847 89.8122 67.6581 92.1865 71.4853 93.7607C76.1395 95.675 81.1691 96.406 86.1088 95.9447C90.2545 95.5575 94.3368 94.3306 98.0806 92.2585" fill="white"/>
<path d="M99.9658 90.2837C99.5943 90.5228 99.4869 91.0178 99.726 91.3894C99.9651 91.7609 100.46 91.8683 100.832 91.6292L99.9658 90.2837ZM105.793 87.4164C106.088 87.0868 106.059 86.5811 105.729 86.2869C105.4 85.9927 104.894 86.0215 104.6 86.3511L105.793 87.4164ZM109.52 81.2251L108.835 80.8126L109.52 81.2251ZM113.047 72.5937L113.825 72.7799L113.047 72.5937ZM113.823 63.3155L114.622 63.2615L113.823 63.3155ZM112.199 55.3073L111.442 55.5689L112.199 55.3073ZM108.459 47.9179L107.8 48.3721L108.459 47.9179ZM105.22 43.963L104.645 44.5187L105.22 43.963ZM99.446 39.263L99.8725 38.5862L99.446 39.263ZM92.4383 35.9979L92.1944 36.7598L92.4383 35.9979ZM83.0458 34.5271L83.0449 35.3271L83.0458 34.5271ZM75.6984 35.4052L75.8881 36.1824L75.6984 35.4052ZM67.8543 38.5208L67.4587 37.8254L67.8543 38.5208ZM61.7075 43.1274L62.2632 43.7029L61.7075 43.1274ZM55.9299 50.7838L55.2235 50.4083L55.9299 50.7838ZM52.9098 59.3409L52.1243 59.1892L52.9098 59.3409ZM52.5367 68.593L51.7416 68.6807L52.5367 68.593ZM56.2063 80.1411L56.9059 79.7532L56.2063 80.1411ZM61.024 86.6428L61.5995 86.087L61.024 86.6428ZM71.4853 93.7607L71.181 94.5005L71.4853 93.7607ZM86.1088 95.9447L86.0344 95.1481L86.1088 95.9447ZM98.468 92.9585C98.8546 92.7445 98.9945 92.2577 98.7806 91.8711C98.5666 91.4846 98.0798 91.3446 97.6932 91.5586L98.468 92.9585ZM100.832 91.6292C102.841 90.3359 104.624 88.7265 105.793 87.4164L104.6 86.3511C103.519 87.5617 101.845 89.0745 99.9658 90.2837L100.832 91.6292ZM107.631 85.2954C108.586 84.1262 109.444 82.9033 110.206 81.6375L108.835 80.8126C108.112 82.0135 107.298 83.1738 106.392 84.2835L107.631 85.2954ZM110.206 81.6375C111.881 78.8535 113.088 75.8627 113.825 72.7799L112.269 72.4075C111.569 75.3338 110.424 78.1716 108.835 80.8126L110.206 81.6375ZM113.825 72.7799C114.571 69.6621 114.837 66.45 114.622 63.2615L113.025 63.3696C113.23 66.3977 112.978 69.4478 112.269 72.4075L113.825 72.7799ZM114.622 63.2615C114.433 60.4792 113.878 57.7144 112.955 55.0457L111.442 55.5689C112.319 58.1022 112.846 60.7273 113.025 63.3696L114.622 63.2615ZM112.955 55.0457C112.038 52.3979 110.76 49.845 109.118 47.4638L107.8 48.3721C109.359 50.6326 110.573 53.0557 111.442 55.5689L112.955 55.0457ZM109.118 47.4638C108.139 46.0449 107.032 44.6873 105.796 43.4072L104.645 44.5187C105.82 45.7355 106.872 47.0251 107.8 48.3721L109.118 47.4638ZM105.796 43.4072C103.981 41.5278 101.989 39.9203 99.8725 38.5862L99.0194 39.9398C101.028 41.2059 102.92 42.7323 104.645 44.5187L105.796 43.4072ZM99.8725 38.5862C97.5982 37.1529 95.1802 36.0357 92.6822 35.236L92.1944 36.7598C94.5657 37.519 96.8608 38.5794 99.0194 39.9398L99.8725 38.5862ZM92.6822 35.236C89.554 34.2345 86.3005 33.7308 83.0467 33.7271L83.0449 35.3271C86.135 35.3306 89.2245 35.809 92.1944 36.7598L92.6822 35.236ZM83.0467 33.7271C80.5149 33.7243 77.9827 34.0242 75.5087 34.628L75.8881 36.1824C78.2363 35.6092 80.6406 35.3244 83.0449 35.3271L83.0467 33.7271ZM75.5087 34.628C72.7233 35.3079 70.0119 36.3731 67.4587 37.8254L68.2498 39.2162C70.6719 37.8385 73.2445 36.8277 75.8881 36.1824L75.5087 34.628ZM67.4587 37.8254C65.2142 39.1021 63.0928 40.6774 61.1518 42.5519L62.2632 43.7029C64.1071 41.9222 66.1207 40.4272 68.2498 39.2162L67.4587 37.8254ZM61.1518 42.5519C58.7123 44.9076 56.7353 47.5643 55.2235 50.4083L56.6363 51.1593C58.0702 48.4618 59.9461 45.9405 62.2632 43.7029L61.1518 42.5519ZM55.2235 50.4083C53.7435 53.1924 52.7099 56.1549 52.1243 59.1892L53.6953 59.4925C54.2513 56.6118 55.2323 53.8005 56.6363 51.1593L55.2235 50.4083ZM52.1243 59.1892C51.5209 62.3153 51.3927 65.5178 51.7416 68.6807L53.3319 68.5053C53.0006 65.5016 53.1224 62.4604 53.6953 59.4925L52.1243 59.1892ZM51.7416 68.6807C52.1937 72.7804 53.4472 76.8144 55.5066 80.529L56.9059 79.7532C54.9515 76.2278 53.7613 72.3984 53.3319 68.5053L51.7416 68.6807ZM55.5066 80.529C56.8243 82.906 58.4715 85.1513 60.4485 87.1985L61.5995 86.087C59.7204 84.1413 58.1565 82.009 56.9059 79.7532L55.5066 80.529ZM60.4485 87.1985C63.5874 90.4489 67.2535 92.8852 71.181 94.5005L71.7896 93.0208C68.0626 91.4879 64.5821 89.1756 61.5995 86.087L60.4485 87.1985ZM71.181 94.5005C75.9563 96.4646 81.116 97.2144 86.1832 96.7412L86.0344 95.1481C81.2223 95.5975 76.3227 94.8853 71.7896 93.0208L71.181 94.5005ZM86.1832 96.7412C90.4362 96.3441 94.6255 95.0852 98.468 92.9585L97.6932 91.5586C94.0482 93.576 90.0728 94.771 86.0344 95.1481L86.1832 96.7412Z" fill="#02CAB5"/>
<path d="M112.96 28.7998V32.6398" stroke="#5AC6B6" stroke-width="1.6" stroke-linecap="round" stroke-linejoin="round"/>
<path d="M112.96 37.7598V41.5998" stroke="#5AC6B6" stroke-width="1.6" stroke-linecap="round" stroke-linejoin="round"/>
<path d="M106.56 35.2H110.4" stroke="#5AC6B6" stroke-width="1.6" stroke-linecap="round" stroke-linejoin="round"/>
<path d="M115.52 35.2H119.36" stroke="#5AC6B6" stroke-width="1.6" stroke-linecap="round" stroke-linejoin="round"/>
<path d="M59.84 94.7202V97.2802" stroke="#5AC6B6" stroke-width="1.6" stroke-linecap="round" stroke-linejoin="round"/>
<path d="M59.84 102.4V104.96" stroke="#5AC6B6" stroke-width="1.6" stroke-linecap="round" stroke-linejoin="round"/>
<path d="M54.7202 99.8402H57.2802" stroke="#5AC6B6" stroke-width="1.6" stroke-linecap="round" stroke-linejoin="round"/>
<path d="M62.4004 99.8402H64.9604" stroke="#5AC6B6" stroke-width="1.6" stroke-linecap="round" stroke-linejoin="round"/>
<path fill-rule="evenodd" clip-rule="evenodd" d="M73.7166 40.1287C72.4117 40.6182 71.1372 41.213 69.9058 41.9134C67.9924 43.0018 66.1833 44.3451 64.5274 45.9442C63.8486 46.5997 63.2119 47.2824 62.6172 47.989M60.7773 50.449C60.3045 51.1634 59.8694 51.8959 59.472 52.6434C59.1785 53.1955 58.9056 53.7559 58.6533 54.3234" fill="white"/>
<path d="M73.9976 40.8777C74.4112 40.7225 74.6208 40.2613 74.4656 39.8477C74.3104 39.434 73.8492 39.2244 73.4355 39.3796L73.9976 40.8777ZM69.9058 41.9134L70.3013 42.6088L69.9058 41.9134ZM64.5274 45.9442L63.9717 45.3687L64.5274 45.9442ZM62.0051 47.4739C61.7207 47.8119 61.7641 48.3166 62.1021 48.6011C62.4402 48.8856 62.9449 48.8422 63.2293 48.5041L62.0051 47.4739ZM61.4445 50.8905C61.6883 50.522 61.5872 50.0256 61.2188 49.7818C60.8503 49.538 60.354 49.639 60.1102 50.0075L61.4445 50.8905ZM59.472 52.6434L60.1784 53.0189L59.472 52.6434ZM57.9223 53.9984C57.7428 54.4021 57.9245 54.8749 58.3282 55.0544C58.732 55.2339 59.2048 55.0521 59.3843 54.6484L57.9223 53.9984ZM73.4355 39.3796C72.0916 39.8839 70.7787 40.4966 69.5103 41.218L70.3013 42.6088C71.4956 41.9295 72.7319 41.3525 73.9976 40.8777L73.4355 39.3796ZM69.5103 41.218C67.5391 42.3392 65.6762 43.7227 63.9717 45.3687L65.0831 46.5197C66.6905 44.9675 68.4456 43.6643 70.3013 42.6088L69.5103 41.218ZM63.9717 45.3687C63.273 46.0434 62.6175 46.7463 62.0051 47.4739L63.2293 48.5041C63.8062 47.8186 64.4242 47.156 65.0831 46.5197L63.9717 45.3687ZM60.1102 50.0075C59.6231 50.7434 59.1749 51.4979 58.7656 52.2679L60.1784 53.0189C60.5638 52.2939 60.9858 51.5835 61.4445 50.8905L60.1102 50.0075ZM58.7656 52.2679C58.4633 52.8366 58.1822 53.4139 57.9223 53.9984L59.3843 54.6484C59.629 54.098 59.8937 53.5544 60.1784 53.0189L58.7656 52.2679Z" fill="#A4C3FE"/>
<path d="M71.0275 64.876C70.0955 64.0365 68.6497 64.1009 67.7983 65.02C66.9469 65.9391 67.0123 67.3648 67.9443 68.2043L78.7017 77.8944C80.0065 79.0698 82.0306 78.9796 83.2225 77.6929C83.2724 77.6382 83.2724 77.6382 83.3205 77.5821L98.672 59.3752C99.479 58.418 99.3464 56.9969 98.3758 56.2011C97.4051 55.4052 95.9639 55.536 95.1569 56.4932L80.724 73.6105L71.0275 64.876Z" fill="#EAFCF2" stroke="#02CAB5" stroke-width="1.6"/>
</svg>
