<svg width="27" height="26" viewBox="0 0 27 26" fill="none" xmlns="http://www.w3.org/2000/svg">
<path d="M26.5586 6.77632C26.5586 6.07392 25.8775 5.50163 25.0414 5.50163H5.22576L8.53881 2.66625C9.12714 2.17195 9.12714 1.36559 8.53881 0.845375C8.2291 0.58517 7.85764 0.481201 7.45503 0.481201C7.05241 0.481201 6.68098 0.611304 6.37124 0.845375L0.457501 5.8659C-0.130833 6.3602 -0.130833 7.16656 0.457501 7.66085L6.40221 12.7074C6.68082 12.9415 7.08337 13.0975 7.48599 13.0975C7.8886 13.0975 8.26004 12.9674 8.56977 12.7333C8.84838 12.4993 9.03411 12.1611 9.03411 11.8228C9.03411 11.4845 8.87926 11.1465 8.60065 10.9122L5.16387 8.05108H25.0105C25.8775 8.05108 26.5584 7.47879 26.5584 6.77639L26.5586 6.77632Z" fill="#FF0033"/>
<path d="M19.5303 26C19.9328 26 20.3352 25.8699 20.614 25.6099L26.5588 20.5633C27.1471 20.069 27.1471 19.2627 26.5588 18.7684L20.614 13.7739C20.0257 13.2796 19.0659 13.2796 18.4468 13.7739C17.8584 14.2682 17.8584 15.0745 18.4468 15.5947L21.7907 18.4041H1.97497C1.13894 18.4041 0.457779 18.9764 0.457779 19.6788C0.457779 20.3812 1.13894 20.9535 1.97497 20.9535H21.8216L18.4466 23.8149C18.168 24.0489 18.0131 24.3872 18.0131 24.7254C18.0131 25.0637 18.168 25.3757 18.4775 25.636C18.7563 25.8699 19.1278 26 19.5304 26L19.5303 26Z" fill="#FF0033"/>
</svg>
