<svg width="24" height="25" viewBox="0 0 24 25" fill="none" xmlns="http://www.w3.org/2000/svg">
<path d="M12.9121 6.79642V14.7884C12.9121 15.2924 12.5041 15.7004 12.0001 15.7004C11.4961 15.7004 11.1121 15.2924 11.1121 14.7884V6.79642L8.08806 9.46042C7.72806 9.79642 7.15206 9.77242 6.84006 9.38842C6.50406 9.02842 6.52806 8.45242 6.91206 8.11642L11.4001 4.13242C11.7361 3.82041 12.2401 3.82041 12.6001 4.10842C12.6001 4.13242 12.6001 4.13242 12.6001 4.13242L17.0881 8.11642C17.4721 8.45242 17.4961 9.02842 17.1841 9.38842C16.8481 9.77242 16.2721 9.79642 15.9121 9.46042L12.9121 6.79642ZM18.1921 17.1884C18.1921 16.6844 18.6001 16.3004 19.1041 16.3004C19.6081 16.3004 19.9921 16.6844 19.9921 17.1884V19.3964C19.9921 19.8764 19.6081 20.2844 19.1041 20.2844H4.89606C4.41606 20.2844 4.00806 19.8764 4.00806 19.3964V17.1884C4.00806 16.6844 4.41606 16.3004 4.89606 16.3004C5.40006 16.3004 5.80806 16.6844 5.80806 17.1884V18.4844H18.1921V17.1884Z" fill="#1b2b41b8" fill-opacity="0.72"/>
<path d="M13.2441 6.42255L12.4121 5.68374V6.79642V14.7884C12.4121 15.0163 12.2279 15.2004 12.0001 15.2004C11.7895 15.2004 11.6121 15.0339 11.6121 14.7884V6.79642V5.68959L10.7815 6.42124L7.75754 9.08524L7.75215 9.08999L7.7469 9.09489C7.58699 9.24414 7.34757 9.22015 7.22811 9.07313L7.21729 9.05981L7.20559 9.04726C7.0632 8.8947 7.06886 8.6436 7.24131 8.49271L7.24132 8.49272L7.24399 8.49035L11.732 4.50634L11.7321 4.50643L11.7403 4.49881C11.8564 4.39102 12.0309 4.36169 12.1911 4.43799L12.2681 4.50634L16.7561 8.49035L16.7561 8.49036L16.7588 8.49271C16.9325 8.64465 16.9405 8.90502 16.807 9.06006C16.656 9.23164 16.4055 9.23704 16.2532 9.09489L16.2533 9.09478L16.2441 9.08655L13.2441 6.42255ZM5.30806 18.4844V18.9844H5.80806H18.1921H18.6921V18.4844V17.1884C18.6921 16.9779 18.8586 16.8004 19.1041 16.8004C19.3319 16.8004 19.4921 16.9606 19.4921 17.1884V19.3964C19.4921 19.6091 19.3231 19.7844 19.1041 19.7844H4.89606C4.6922 19.7844 4.50806 19.6003 4.50806 19.3964V17.1884C4.50806 16.9693 4.68335 16.8004 4.89606 16.8004C5.14153 16.8004 5.30806 16.9779 5.30806 17.1884V18.4844Z" stroke="#1b2b41b8" stroke-opacity="0.16"/>
</svg>
