<svg width="126" height="135" viewBox="0 0 126 135" fill="none" xmlns="http://www.w3.org/2000/svg">
<path d="M125.923 11.8267L99.3248 127.533C98.6203 130.601 94.6753 135.485 89.2118 137.739C83.6856 140.009 76.4374 140.009 69.5649 130.93C56.7748 114.025 45.8633 78.2892 26.8426 116.201C8.46379 152.813 -10.1342 137.849 -13.4374 122.587C-17.6329 103.177 -35.0412 36.4645 -37.7495 18.4636C-38.5322 13.2512 -37.5459 7.88219 -33.867 4.10983C-30.2351 0.384424 -23.5661 -2.934 -15.8952 4.2194C-7.22241 12.3276 -27.3703 53.5105 56.3052 23.3786C89.337 11.4824 104.929 1.27665 116.216 0.791404C127.519 0.290509 125.923 11.8267 125.923 11.8267Z" fill="white" fill-opacity="0.15"/>
</svg>
