<svg width="112" height="95" viewBox="0 0 112 95" fill="none" xmlns="http://www.w3.org/2000/svg">
<path d="M89.1739 0H37.9744V91.8254H89.1739V0Z" fill="white"/>
<path d="M84.5894 10.4704H42.2095V75.0922H84.5894V10.4704Z" fill="#00C9B6"/>
<path fill-rule="evenodd" clip-rule="evenodd" d="M68.7354 36.1391H89.1694V18.2083H68.7354V36.1391Z" fill="black" fill-opacity="0.078431"/>
<path fill-rule="evenodd" clip-rule="evenodd" d="M68.7399 83.3693C68.7399 80.6018 66.4964 78.3583 63.729 78.3583C60.9615 78.3583 58.718 80.6018 58.718 83.3693C58.718 86.1367 60.9615 88.3802 63.729 88.3802C66.4964 88.3802 68.7399 86.1367 68.7399 83.3693Z" fill="#00C9B6" fill-opacity="0.560784"/>
<path fill-rule="evenodd" clip-rule="evenodd" d="M57.1798 35.157L65.5957 36.4131L65.3355 36.9738C64.4975 38.8629 64.0144 40.8983 63.9139 42.9627C63.8511 43.9676 63.2813 45.3404 61.3882 46.9553C58.1582 49.7098 56.0812 58.5783 51.7925 62.042C49.2265 64.1814 47.6972 67.3239 47.6021 70.6647L46.7681 91.8205H38.4509L40.2857 59.4715L42.4884 48.3057L47.8717 42.7788L52.8064 36.4131L55.0494 35.157H57.1803H57.1798Z" fill="black" fill-opacity="0.078431"/>
<path fill-rule="evenodd" clip-rule="evenodd" d="M59.2432 5.68191H73.5986V3.58691H59.2432V5.68191Z" fill="black" fill-opacity="0.121569"/>
<path d="M54.0438 7.19896C55.3346 7.19896 56.381 6.15254 56.381 4.86172C56.381 3.5709 55.3346 2.52448 54.0438 2.52448C52.753 2.52448 51.7065 3.5709 51.7065 4.86172C51.7065 6.15254 52.753 7.19896 54.0438 7.19896Z" fill="#00C9B6"/>
<path fill-rule="evenodd" clip-rule="evenodd" d="M42.4697 47.1946L50.5267 37.1503L52.2673 38.6755L45.3991 50.1599L42.4697 47.1946Z" fill="#492886"/>
<path fill-rule="evenodd" clip-rule="evenodd" d="M29.1236 30.6479L30.6084 35.1115L27.0779 37.3545L25.8083 29.6205L29.1236 30.6479Z" fill="#8B654F"/>
<path fill-rule="evenodd" clip-rule="evenodd" d="M24.5974 25.3129C25.0361 24.295 26.0388 23.6351 27.1477 23.6351C27.9243 23.6351 28.6658 23.9608 29.1916 24.5323C30.6944 26.1338 32.5068 28.6864 30.4567 30.0771C27.3164 32.2035 24.4408 28.2288 24.4408 28.2288C24.3453 27.8372 24.2964 27.4343 24.2964 27.0306C24.2964 26.4451 24.3987 25.8629 24.5979 25.3129H24.5974Z" fill="#8B654F"/>
<path fill-rule="evenodd" clip-rule="evenodd" d="M26.8893 28.049C26.8893 28.049 26.0863 27.3761 25.7185 28.3317C25.3506 29.2872 26.7772 29.7448 27.1989 29.2648C27.6205 28.7847 26.8893 28.049 26.8893 28.049Z" fill="#F4A28C"/>
<path fill-rule="evenodd" clip-rule="evenodd" d="M22.9553 39.547C24.0347 37.1595 26.1032 35.3552 28.6168 34.6119C33.4124 33.1718 42.2499 34.7464 44.9416 39.237C48.6291 45.3784 43.2324 64.8973 43.2324 64.8973L27.1095 66.1489C27.1095 66.1489 18.2629 50.1435 22.9553 39.5474V39.547Z" fill="#5A2C9D"/>
<path fill-rule="evenodd" clip-rule="evenodd" d="M43.232 64.8871L41.1101 92.602H37.759L34.7623 71.0689L27.3513 66.1387L43.232 64.8871Z" fill="#011627"/>
<path fill-rule="evenodd" clip-rule="evenodd" d="M27.3519 66.1356L22.7268 92.5989H26.3201L34.0855 70.6127L27.3519 66.1356Z" fill="#011627"/>
<path fill-rule="evenodd" clip-rule="evenodd" d="M30.0115 34.1767C30.0115 34.1767 22.4704 58.4643 44.2458 60.0748L43.232 64.9018L27.109 66.1534C27.109 66.1534 21.4297 57.2306 21.6674 44.701C21.6674 44.701 21.8065 38.5058 26.1535 35.7693C27.31 34.9707 28.6285 34.4261 30.0115 34.1767Z" fill="#00C9B6" fill-opacity="0.078431"/>
<path fill-rule="evenodd" clip-rule="evenodd" d="M23.5698 92.5416L21.403 94.1387C21.2841 94.2293 21.2146 94.3701 21.2146 94.52C21.2146 94.7815 21.4241 94.9951 21.6856 95H25.3149C25.5782 94.9973 25.7904 94.7833 25.7904 94.52V92.5416H23.5698Z" fill="#011627"/>
<path fill-rule="evenodd" clip-rule="evenodd" d="M40.6932 92.5411L42.7344 94.1381C42.8533 94.2288 42.9228 94.3701 42.9228 94.5195C42.9228 94.7846 42.7079 94.9995 42.4428 94.9995C42.4415 94.9995 42.4397 94.9995 42.4383 94.9995H39.8543C39.8472 94.999 39.8395 94.9995 39.8319 94.9995C39.0688 94.9995 38.4502 94.3808 38.4502 93.6178C38.4502 93.616 38.4502 93.6146 38.4502 93.6128V92.5362L40.6932 92.5411Z" fill="#011627"/>
<path fill-rule="evenodd" clip-rule="evenodd" d="M36.5842 34.4779C35.7821 35.7654 35.3555 37.257 35.3555 38.7756C35.3555 40.2941 35.7821 41.7853 36.5842 43.0737C38.3427 46.0434 43.4613 51.8215 46.956 55.6347C47.6558 56.3991 48.6459 56.8365 49.6826 56.8365C51.0226 56.8365 52.2585 56.1097 52.9095 54.9389L60.4322 41.7009L57.8841 40.068L50.998 50.1617C50.998 50.1617 46.2741 34.6713 36.5842 34.4784V34.4779Z" fill="#492886"/>
<path fill-rule="evenodd" clip-rule="evenodd" d="M59.5346 41.1269C59.5346 41.1269 63.8009 39.5613 62.0603 37.1478C60.3197 34.7343 57.8748 40.0637 57.8748 40.0637L59.5346 41.1269Z" fill="#8B654F"/>
<path d="M63.4093 34.119L59.5649 32.397L57.0543 38.0018L60.8986 39.7238L63.4093 34.119Z" fill="#011627"/>
<path fill-rule="evenodd" clip-rule="evenodd" d="M26.0417 31.037L23.6461 28.5651C23.1782 28.0775 22.9163 27.427 22.9163 26.751C22.9163 26.7083 22.9176 26.6648 22.9194 26.6227C22.9777 25.3666 23.2469 23.3613 24.2652 21.854C25.8982 19.4943 28.0739 18.6016 28.6122 20.6427C29.1506 22.6839 29.2672 20.2614 30.5816 21.3426C31.896 22.4237 31.6269 23.0652 30.5816 23.6394C29.5364 24.2136 27.3696 25.0481 27.1767 26.7797C26.9838 28.5113 28.6436 29.8796 26.0417 31.037Z" fill="#011627"/>
<path fill-rule="evenodd" clip-rule="evenodd" d="M50.9353 37.5075C50.9353 37.5075 51.4691 33.8244 55.0401 34.1788C58.611 34.5332 57.3055 35.4439 55.8655 35.5246C55.2688 35.6498 54.7879 36.0903 54.6094 36.6731C54.3986 37.3191 53.8198 38.1535 52.2811 38.6828L50.9353 37.5075Z" fill="#8B654F"/>
<path d="M111.591 15.5577H68.7354V33.4886H111.591V15.5577Z" fill="#5A2C9D"/>
<path d="M87.819 19.4459H73.5981V28.5571H87.819V19.4459Z" fill="white"/>
<path fill-rule="evenodd" clip-rule="evenodd" d="M73.5981 19.4459L80.7041 26.0987L87.8145 19.4459H73.5981Z" fill="#5A2C9D"/>
<path d="M106.136 20.4152H93.0503V23.1068H106.136V20.4152Z" fill="white"/>
<path fill-rule="evenodd" clip-rule="evenodd" d="M93.0496 27.4439H106.136V24.7523H93.0496V27.4439Z" fill="white" fill-opacity="0.458824"/>
<path fill-rule="evenodd" clip-rule="evenodd" d="M18.1506 33.2799L14.4676 31.7726V28.2734H0V37.286H14.4676V34.2534L18.1506 33.2799Z" fill="white"/>
<path fill-rule="evenodd" clip-rule="evenodd" d="M5.09637 32.7841C5.09637 32.1772 4.60425 31.6851 3.99728 31.6851C3.39032 31.6851 2.89819 32.1772 2.89819 32.7841C2.89819 33.3911 3.39032 33.8832 3.99728 33.8832C4.60425 33.8832 5.09637 33.3911 5.09637 32.7841Z" fill="black" fill-opacity="0.121569"/>
<path fill-rule="evenodd" clip-rule="evenodd" d="M8.30828 32.7841C8.30828 32.1772 7.81616 31.6851 7.20919 31.6851C6.60223 31.6851 6.11011 32.1772 6.11011 32.7841C6.11011 33.3911 6.60223 33.8832 7.20919 33.8832C7.81616 33.8832 8.30828 33.3911 8.30828 32.7841Z" fill="black" fill-opacity="0.121569"/>
<path fill-rule="evenodd" clip-rule="evenodd" d="M11.444 32.7841C11.444 32.1772 10.9519 31.6851 10.3449 31.6851C9.73797 31.6851 9.24585 32.1772 9.24585 32.7841C9.24585 33.3911 9.73797 33.8832 10.3449 33.8832C10.9519 33.8832 11.444 33.3911 11.444 32.7841Z" fill="black" fill-opacity="0.121569"/>
</svg>
