<svg width="118" height="77" viewBox="0 0 118 77" fill="none" xmlns="http://www.w3.org/2000/svg">
<path d="M100.673 48.8114V64.2445L94.123 73.056" stroke="#A5A5A5" stroke-width="1.98012" stroke-miterlimit="2.61313" stroke-linecap="square"/>
<path d="M100.852 64.4894L107.038 73.0554" stroke="#A5A5A5" stroke-width="1.98012" stroke-miterlimit="2.61313" stroke-linecap="square"/>
<path fill-rule="evenodd" clip-rule="evenodd" d="M11.7067 45.8838C11.7067 45.8838 3.44958 31.9952 11.7067 27.0212C19.9638 22.0471 31.5475 18.174 34.8702 26.3044C38.1928 34.4348 37.7335 45.8838 37.7335 45.8838H11.7067Z" fill="#011627"/>
<path fill-rule="evenodd" clip-rule="evenodd" d="M24.3836 16.962C25.1895 17.8352 25.8794 18.8161 26.4239 19.8727C26.4817 20.0078 26.5118 20.1535 26.5118 20.3008C26.5118 20.7309 26.2556 21.1202 25.8608 21.2901C25.5289 21.4572 25.1626 21.5444 24.7915 21.5444C24.2485 21.5444 23.721 21.3582 23.2985 21.0169L21.6471 19.9278C21.2011 19.5638 20.9421 19.0185 20.9421 18.4427C20.9421 18.2197 20.9813 17.9984 21.057 17.7893C21.4807 16.3636 23.5476 15.9596 24.3836 16.9616V16.962Z" fill="#8B654F"/>
<path fill-rule="evenodd" clip-rule="evenodd" d="M22.5222 19.7432L22.6014 26.7564L26.4666 26.436L24.8548 21.4616L22.5222 19.7432Z" fill="#8B654F"/>
<path fill-rule="evenodd" clip-rule="evenodd" d="M24.0191 17.3536C23.513 17.7797 22.9574 18.1472 22.3681 18.4466C23.0354 18.6791 23.5023 19.2858 23.5558 19.9911C23.5601 20.037 23.5625 20.0846 23.5625 20.1313C23.5625 20.7756 23.1391 21.3435 22.5221 21.5277L20.8667 19.3337C20.5515 18.9444 20.3796 18.4581 20.3796 17.9567C20.3796 17.6696 20.4363 17.3853 20.546 17.1199C20.6767 16.8059 20.8287 16.4966 20.997 16.2008C21.4287 15.4641 22.6683 15.1711 22.9019 14.3157C22.9649 14.0919 23.1688 13.9371 23.4017 13.9371C23.534 13.9371 23.6615 13.9878 23.7573 14.0785C24.3672 14.6646 25.0563 15.7972 24.4425 16.8506C24.3304 17.0407 24.187 17.211 24.0187 17.3536H24.0191Z" fill="#011627"/>
<path fill-rule="evenodd" clip-rule="evenodd" d="M23.7104 19.8024C23.7104 19.8024 23.1916 19.1608 22.7402 19.5925C22.2887 20.0242 23.0332 20.9509 23.7659 20.5232L23.7104 19.8024Z" fill="#704940"/>
<path fill-rule="evenodd" clip-rule="evenodd" d="M25.2471 17.9929L26.2253 18.282C26.3722 18.3231 26.474 18.4574 26.474 18.6099C26.474 18.6934 26.4431 18.7742 26.3876 18.8364L25.8332 19.4621L25.2471 17.9929Z" fill="#8B654F"/>
<path fill-rule="evenodd" clip-rule="evenodd" d="M24.8231 21.6286C24.7161 21.6421 24.6072 21.6492 24.4991 21.6492C24.1134 21.6492 23.7324 21.5605 23.3859 21.3906C23.0394 21.2207 23.5997 22.6698 25.366 23.3351L24.8231 21.6286Z" fill="#4E1F13" fill-opacity="0.309804"/>
<path fill-rule="evenodd" clip-rule="evenodd" d="M22.3839 26.1407C22.3839 26.1407 11.5407 27.7961 14.0357 34.6711C16.5307 41.5461 18.9424 52.0645 18.9424 52.0645H40.7907C40.7907 52.0645 42.3748 39.1264 42.5253 34.5958C42.6758 30.0657 42.062 18.7469 22.3839 26.1407Z" fill="#00C9B6"/>
<path fill-rule="evenodd" clip-rule="evenodd" d="M34.4272 28.7592C34.4272 28.7592 28.1819 31.6621 29.5561 38.2638C30.9303 44.8656 13.0696 45.8833 13.0696 45.8833H40.3953L43.8486 39.3291L39.7577 31.3136L34.4272 28.7592Z" fill="black" fill-opacity="0.078431"/>
<path fill-rule="evenodd" clip-rule="evenodd" d="M34.4112 30.4955C33.6509 26.8481 37.8883 24.27 40.8744 26.4996C44.9103 29.4472 47.6666 33.836 48.5687 38.7518C50.5845 49.6386 26.7874 46.403 26.7874 46.403L27.2309 43.4724C27.2309 43.4724 40.2205 43.516 40.1215 39.3261C40.0427 36.4834 35.1795 34.1864 34.4112 30.4955Z" fill="#00A394"/>
<path fill-rule="evenodd" clip-rule="evenodd" d="M13.2951 30.8951C10.3764 33.7148 6.07558 39.2591 8.03591 45.8846H28.0946C28.0946 45.8846 30.3163 42.9818 23.3858 43.4768C16.4554 43.9718 14.3565 41.366 18.7127 36.6731C20.9265 34.2969 20.1107 32.3168 18.7721 30.9347C18.0423 30.2012 17.049 29.7886 16.0138 29.7886C14.998 29.7886 14.0218 30.1858 13.2951 30.8951Z" fill="#00A394"/>
<path d="M61.6175 48.3185H0V73.0543H61.6175V48.3185Z" fill="white"/>
<path d="M61.6175 45.8821H0V50.3453H61.6175V45.8821Z" fill="#F4F4F4"/>
<path fill-rule="evenodd" clip-rule="evenodd" d="M51.9899 45.8831L47.5029 66.7695H52.8374L51.2216 73.0544H61.6173L61.4787 52.869L58.2946 45.5583L51.9899 45.8831Z" fill="black" fill-opacity="0.078431"/>
<path fill-rule="evenodd" clip-rule="evenodd" d="M16.6614 45.8832L14.8516 35.44H31.9202L29.8055 45.8832H16.6614Z" fill="white"/>
<path d="M23.8212 41.9643C24.5495 41.9643 25.14 41.3739 25.14 40.6455C25.14 39.9172 24.5495 39.3268 23.8212 39.3268C23.0929 39.3268 22.5024 39.9172 22.5024 40.6455C22.5024 41.3739 23.0929 41.9643 23.8212 41.9643Z" fill="white"/>
<path fill-rule="evenodd" clip-rule="evenodd" d="M31.5836 37.0931C31.5836 37.0931 27.8174 44.6175 16.6614 45.8809H29.8054L31.5836 37.0931Z" fill="black" fill-opacity="0.078431"/>
<path fill-rule="evenodd" clip-rule="evenodd" d="M56.691 61.6082L54.0178 73.7582H55.5702L60.774 61.6082H56.691Z" fill="#8B654F"/>
<path fill-rule="evenodd" clip-rule="evenodd" d="M65.3916 60.1319L68.243 73.7591H69.8073L69.5736 60.0369L65.3916 60.1319Z" fill="#8B654F"/>
<path fill-rule="evenodd" clip-rule="evenodd" d="M65.1701 17.7202C65.1701 17.7202 67.8077 22.128 64.7741 23.2646C61.7406 24.4011 61.8831 16.441 61.8831 16.441L65.1701 17.7202Z" fill="#24285B"/>
<path fill-rule="evenodd" clip-rule="evenodd" d="M64.3656 14.5142C64.777 15.393 65.0717 16.3288 65.2364 17.2864C65.24 17.3165 65.2416 17.347 65.2416 17.3775C65.2416 17.8309 64.8962 18.2103 64.4448 18.2527C64.3414 18.2697 64.2365 18.2784 64.1315 18.2784C63.4812 18.2784 62.8737 17.9517 62.5157 17.4096L61.4979 16.1621C61.3328 15.9062 61.2449 15.608 61.2449 15.3031C61.2449 14.9586 61.3573 14.6231 61.5653 14.3483C62.2508 13.3345 63.9576 13.5166 64.3652 14.5146L64.3656 14.5142Z" fill="#8B654F"/>
<path fill-rule="evenodd" clip-rule="evenodd" d="M61.8906 16.4366L61.4788 22.1437L64.643 22.1473L63.6965 18.0963L61.8906 16.4366Z" fill="#8B654F"/>
<path fill-rule="evenodd" clip-rule="evenodd" d="M57.9582 22.0101C57.9582 22.0101 49.3011 23.7606 51.7168 32.9127C54.1326 42.0644 58.4493 47.2211 58.4493 47.2211L71.2844 46.6389C71.2844 46.6389 70.8132 40.4887 72.4725 36.8056C74.1318 33.1226 75.712 23.8239 64.6431 22.1527L57.9582 22.0101Z" fill="#00C9B6"/>
<path fill-rule="evenodd" clip-rule="evenodd" d="M64.782 15.5327L65.4711 15.996C65.5526 16.0467 65.6021 16.1358 65.6021 16.2316C65.6021 16.3275 65.5526 16.4166 65.4711 16.4673L64.8889 16.8158L64.782 15.5327Z" fill="#8B654F"/>
<path fill-rule="evenodd" clip-rule="evenodd" d="M63.7205 18.2128C63.3399 18.1439 62.9839 17.974 62.6908 17.7221C62.3978 17.4698 62.4889 18.9577 63.9938 19.3735L63.7205 18.2128Z" fill="#4E1F13" fill-opacity="0.309804"/>
<path fill-rule="evenodd" clip-rule="evenodd" d="M61.4791 47.0891C61.2755 47.0844 61.0617 47.0792 60.8553 47.0792C60.0518 47.0792 59.2459 47.1283 58.4499 47.2242L54.6516 64.0347L63.4552 64.1495L70.4253 64.2445L71.2847 46.6412L61.4791 47.0887V47.0891Z" fill="#011627"/>
<path fill-rule="evenodd" clip-rule="evenodd" d="M63.2098 15.357L62.4732 15.6104C62.4732 15.6104 63.2653 18.7588 62.2118 21.4993C61.7754 22.569 60.7343 23.2692 59.5791 23.2692C58.9565 23.2692 58.351 23.0644 57.856 22.6874L57.2259 22.2284C56.8916 21.9769 56.6948 21.5829 56.6948 21.1643C56.6948 20.6934 56.9435 20.2578 57.3491 20.0186C58.5371 19.3137 59.7925 18.0385 59.5628 15.8999C59.2935 13.3693 61.5865 11.8446 63.2379 12.2525C63.9377 12.4406 64.4244 13.0759 64.4244 13.8014C64.4244 14.5372 63.9235 15.1788 63.2094 15.3574L63.2098 15.357Z" fill="#011627"/>
<path fill-rule="evenodd" clip-rule="evenodd" d="M62.9206 16.3661C62.9206 16.3661 62.675 15.7403 62.2196 15.97C61.7642 16.1997 62.1127 17.0987 62.7899 16.9443L62.9206 16.3661Z" fill="#704940"/>
<path fill-rule="evenodd" clip-rule="evenodd" d="M71.0307 34.0864L69.8506 45.1628H78.0285L79.1691 34.0864H71.0307Z" fill="white"/>
<path fill-rule="evenodd" clip-rule="evenodd" d="M71.9574 39.2589C71.9574 39.2589 72.9554 39.8291 72.5673 41.73C72.1792 43.631 78.2463 43.0528 78.2463 43.0528L78.0285 45.1636H69.8506L70.2149 41.73L71.9574 39.2589Z" fill="black" fill-opacity="0.078431"/>
<path fill-rule="evenodd" clip-rule="evenodd" d="M79.1693 41.9401C79.1693 41.9401 79.4545 39.4174 77.9812 39.263C76.508 39.1085 76.4763 43.3737 79.1693 41.9401Z" fill="#8B654F"/>
<path fill-rule="evenodd" clip-rule="evenodd" d="M69.4351 40.323C69.4351 40.323 69.8311 37.9152 71.2924 38.3429C72.7537 38.7706 71.5657 41.8279 70.2152 41.7408L69.4351 40.323Z" fill="#8B654F"/>
<path fill-rule="evenodd" clip-rule="evenodd" d="M54.0174 73.7616C54.0174 73.7616 53.1541 74.8586 52.0373 74.8032C50.9205 74.7477 50.77 76.312 52.5482 76.1497C53.0998 76.1041 53.6487 76.0091 54.1837 75.8689C54.3976 75.8194 54.6166 75.7944 54.8356 75.7944C55.1215 75.7944 55.4071 75.8372 55.6807 75.92C55.7171 75.9287 55.7548 75.933 55.792 75.933C55.952 75.933 56.1009 75.8518 56.1876 75.7176C56.6945 75.1275 55.455 73.7612 55.455 73.7612H54.0174V73.7616Z" fill="#011627"/>
<path fill-rule="evenodd" clip-rule="evenodd" d="M69.7002 73.7616C69.7002 73.7616 70.5635 74.8586 71.6803 74.8032C72.7971 74.7477 72.9476 76.312 71.1695 76.1497C70.6178 76.1041 70.0689 76.0091 69.5339 75.8689C69.32 75.8194 69.101 75.7944 68.882 75.7944C68.5961 75.7944 68.3105 75.8372 68.0369 75.92C68.0005 75.9287 67.9628 75.933 67.9256 75.933C67.7656 75.933 67.6167 75.8518 67.53 75.7176C67.0231 75.1275 68.2626 73.7612 68.2626 73.7612H69.7002V73.7616Z" fill="#011627"/>
<path fill-rule="evenodd" clip-rule="evenodd" d="M71.9617 32.1482H67.9222L67.5024 29.5859H71.5419L71.9617 32.1482Z" fill="black" fill-opacity="0.078431"/>
<path fill-rule="evenodd" clip-rule="evenodd" d="M61.5182 32.0588C61.3757 29.3777 57.558 29.049 56.9521 31.6627C56.3264 34.4349 55.6729 38.6288 56.6907 41.1673C58.3144 45.1949 64.7815 42.7514 64.7815 42.7514C64.7815 42.7514 58.7975 41.4327 60.4727 37.4447C61.1642 35.8372 61.5214 34.1019 61.5214 32.3518C61.5214 32.2544 61.5198 32.155 61.5182 32.0592V32.0588Z" fill="black" fill-opacity="0.078431"/>
<path fill-rule="evenodd" clip-rule="evenodd" d="M72.655 31.4266H68.6155L68.1997 28.8604H72.2352L72.655 31.4266Z" fill="white"/>
<path fill-rule="evenodd" clip-rule="evenodd" d="M70.2549 30.5835H69.0826L68.8965 29.4505H70.0687L70.2549 30.5835Z" fill="#68E1FD" fill-opacity="0.231373"/>
<path fill-rule="evenodd" clip-rule="evenodd" d="M57.978 27.6519C57.9028 25.7407 56.3298 24.2294 54.4166 24.2294C53.3386 24.2294 52.3181 24.7181 51.6416 25.5569C50.5486 26.9272 49.8081 28.8241 50.0575 31.426C50.7862 39.1049 54.5128 48.0155 59.0592 48.0155C63.6056 48.0155 70.2192 41.7306 70.2192 41.7306L69.4271 40.3247C69.4271 40.3247 62.96 44.2097 59.3206 43.4929C56.4728 42.8988 58.2153 34.7526 57.9777 27.6519H57.978Z" fill="#00A796"/>
<path d="M117.793 0H83.5571V48.418H117.793V0Z" fill="#011627"/>
<path d="M117.793 45.5583H83.5571V52.065H117.793V45.5583Z" fill="#F4F4F4"/>
<path d="M100.674 27.8083C106.732 27.8083 111.644 22.8969 111.644 16.8384C111.644 10.7799 106.732 5.86847 100.674 5.86847C94.6152 5.86847 89.7039 10.7799 89.7039 16.8384C89.7039 22.8969 94.6152 27.8083 100.674 27.8083Z" fill="#F4F4F4"/>
<path fill-rule="evenodd" clip-rule="evenodd" d="M100.673 5.86398V16.8378L111.429 14.6637C111.429 14.6637 109.699 5.09966 100.673 5.86398Z" fill="#00C9B6"/>
<path fill-rule="evenodd" clip-rule="evenodd" d="M100.673 16.8401L110.012 22.6261C110.012 22.6261 112.871 18.4836 111.429 14.7056L100.673 16.8401Z" fill="white"/>
<path d="M108.586 32.0753H92.761V35.4178H108.586V32.0753Z" fill="#00C9B6"/>
<path d="M108.586 37.5864H92.761V40.9289H108.586V37.5864Z" fill="white"/>
</svg>
