<svg width="102" height="35" viewBox="0 0 102 35" fill="none" xmlns="http://www.w3.org/2000/svg">
<g clip-path="url(#clip0_111_2631)">
<path d="M12.0465 5.46835C11.8615 5.46835 11.6961 5.58662 11.6366 5.76226L8.12908 16.0671C7.99265 16.4682 7.42204 16.456 7.30295 16.0491L4.29438 5.78021C4.24003 5.5953 4.07064 5.46835 3.87813 5.46835H0.434223C0.139379 5.46835 -0.0693231 5.75646 0.0214427 6.03701L5.30262 22.3576C5.36044 22.5368 5.52695 22.6585 5.71483 22.6585H9.27783C9.46397 22.6585 9.62932 22.5391 9.68887 22.3623L13.3374 11.5108C13.4698 11.1178 14.0231 11.1155 14.1584 11.5074L17.9017 22.3658C17.9624 22.5408 18.1266 22.6585 18.3116 22.6585H21.77C21.9584 22.6585 22.1255 22.5362 22.1828 22.3559L27.397 6.03585C27.4865 5.7553 27.2777 5.46835 26.984 5.46835H23.7506C23.5575 5.46835 23.3875 5.59646 23.3337 5.78255L20.3911 16.0346C20.2738 16.4433 19.7009 16.4572 19.5638 16.0549L16.061 5.76226C16.0014 5.58662 15.8361 5.46835 15.6511 5.46835H12.0465ZM27.7678 17.9983C27.7678 20.7158 29.9855 23.1869 33.5761 23.1869C35.5232 23.1869 36.9351 22.4954 37.8848 21.6323C38.2081 21.3384 38.881 21.5552 38.9268 21.9899C38.9411 22.1331 38.9574 22.2531 38.9717 22.3511C39 22.536 39.1592 22.6577 39.3453 22.6577H42.306C42.6002 22.6577 42.6267 22.3957 42.6238 22.1337C42.6181 21.6352 42.6238 20.8857 42.6238 19.9043V11.3622C42.6238 7.93812 40.6171 4.93776 35.3367 4.93776C31.295 4.93776 28.6713 7.36078 28.1742 10.167C28.1355 10.3843 28.2817 10.5872 28.4961 10.6359L31.3741 11.2892C31.6279 11.3466 31.8725 11.1675 31.9296 10.913C32.2644 9.41803 33.4293 8.29114 35.3718 8.29114C37.6249 8.29114 38.6104 9.45628 38.6104 10.9031C38.6104 11.5031 38.3289 11.9976 37.3433 12.139L32.9426 12.8091C30.0206 13.2328 27.7678 14.9272 27.7678 17.9983ZM34.3509 19.975C32.7316 19.975 31.8517 18.9159 31.8517 17.7514C31.8517 16.3393 32.8726 15.6333 34.1399 15.4211L38.1126 14.8252C38.3751 14.7863 38.6104 14.9898 38.6104 15.2553V15.5272C38.6104 18.8806 36.6391 19.975 34.3509 19.975ZM49.4609 22.6575C49.7003 22.6575 49.8943 22.4627 49.8943 22.2227V0.43463C49.8943 0.194647 49.7003 -0.00012207 49.4609 -0.00012207H46.2441C46.0047 -0.00012207 45.8105 0.194647 45.8105 0.43463V22.2227C45.8105 22.4627 46.0047 22.6575 46.2441 22.6575H49.4609ZM57.0441 22.6575C57.2834 22.6575 57.4777 22.4627 57.4777 22.2227V0.43463C57.4777 0.194647 57.2834 -0.00012207 57.0441 -0.00012207H53.8272C53.5879 -0.00012207 53.3936 0.194647 53.3936 0.43463V22.2227C53.3936 22.4627 53.5879 22.6575 53.8272 22.6575H57.0441ZM63.9447 13.1998C63.7006 13.2654 63.4506 13.1088 63.4338 12.8564C63.32 11.1382 64.2809 9.16314 66.5548 8.55221C69.071 7.87619 70.7631 9.01612 71.4671 10.7143C71.5618 10.9415 71.4227 11.1908 71.1851 11.2546L63.9447 13.1998ZM73.6451 15.3688C73.4083 15.358 73.209 15.54 73.1768 15.7755C72.9592 17.3823 72.0331 18.7743 69.8446 19.3623C67.5394 19.9816 65.2283 18.8856 64.318 16.6732C64.224 16.4446 64.3629 16.1937 64.6007 16.1298L76.0111 13.0642C76.1697 13.0216 76.2718 12.8909 76.2491 12.7272C76.2153 12.4867 76.1441 12.1127 76.0353 11.7056C74.6323 6.4553 70.7375 3.88355 65.6368 5.25392C61.4541 6.37764 58.507 10.8968 59.91 16.1477C61.4135 21.7732 66.2669 23.9776 70.7556 22.7717C74.5518 21.7517 76.5376 18.9222 76.8062 15.9412C76.8278 15.7032 76.6419 15.5029 76.4044 15.4917L73.6451 15.3688ZM83.6837 0.643719C83.6837 0.403155 83.4902 0.208965 83.2504 0.208965H80.4216C80.1815 0.208965 79.988 0.403155 79.988 0.643719V2.7856C79.988 4.30319 79.1778 5.46832 77.3475 5.46832H76.9007C76.6614 5.46832 76.4671 5.66251 76.4671 5.90307V8.66928C76.4671 8.90926 76.6614 9.10403 76.9007 9.10403H79.2023C79.4415 9.10403 79.6357 9.29821 79.6357 9.53878V17.7521C79.6357 20.9641 81.6073 22.8701 84.7754 22.8701C85.9021 22.8701 86.6202 22.706 87.0069 22.5808C87.1724 22.5281 87.2746 22.3692 87.2746 22.1953V19.6233C87.2746 19.3491 87.0237 19.1393 86.7519 19.1729C86.4854 19.2054 86.1617 19.2343 85.8668 19.2343C84.3526 19.2343 83.6837 18.599 83.6837 17.0815V9.53878C83.6837 9.29821 83.878 9.10403 84.1174 9.10403H86.8063C87.0457 9.10403 87.2399 8.90926 87.2399 8.66928V5.90307C87.2399 5.66251 87.0457 5.46832 86.8063 5.46832H84.1174C83.878 5.46832 83.6837 5.27355 83.6837 5.03357V0.643719ZM88.8014 17.8992C88.5967 17.9566 88.4614 18.1543 88.5031 18.3629C88.898 20.3199 90.8584 23.1869 95.5221 23.1869C99.8877 23.1869 102 20.2926 102 17.6807C102 15.1388 100.31 13.1621 97.0716 12.4561L94.4665 11.9268C93.4102 11.7153 92.7413 11.0446 92.7413 10.127C92.7413 9.06789 93.7623 8.15028 95.2054 8.15028C97.1455 8.15028 97.9717 9.29167 98.2648 10.2412C98.3423 10.4933 98.5989 10.662 98.8521 10.5901L101.451 9.84523C101.664 9.78437 101.798 9.57396 101.745 9.35948C101.307 7.62046 99.6547 4.93776 95.2054 4.93776C91.6499 4.93776 88.9037 7.4796 88.9037 10.4794C88.9037 12.8445 90.4885 14.8211 93.5154 15.4918L96.0505 16.057C97.4236 16.3393 98.0571 17.0453 98.0571 17.963C98.0571 19.022 97.1768 19.9396 95.4874 19.9396C93.549 19.9396 92.4159 18.8539 92.0874 17.523C92.0228 17.2598 91.7619 17.0766 91.5013 17.1491L88.8014 17.8992Z" fill="#00C9B6"/>
<path d="M71.5864 33.6638C71.5864 34.2213 72.0309 34.6672 72.5865 34.6672C73.1427 34.6672 73.5994 34.2213 73.5994 33.6638C73.5994 33.1068 73.1427 32.6488 72.5865 32.6488C72.0309 32.6488 71.5864 33.1068 71.5864 33.6638ZM74.3134 32.9574C74.3134 33.9111 75.0916 34.7777 76.3512 34.7777C76.9813 34.7777 77.4519 34.5713 77.7826 34.3011C77.9249 34.1852 78.2191 34.3743 78.2561 34.5545C78.2724 34.6315 78.3186 34.5922 78.3966 34.5922H79.2464C79.4291 34.5922 79.5696 34.424 79.5529 34.242C79.5379 34.0813 79.5252 33.8727 79.5252 33.6258V30.6295C79.5252 29.4283 78.8209 28.3756 76.9686 28.3756C75.6089 28.3756 74.7065 29.1577 74.481 30.0904C74.4463 30.2336 74.5451 30.3693 74.6879 30.4018L75.428 30.5697C75.5968 30.6081 75.7587 30.4868 75.8158 30.3229C75.9731 29.8743 76.3657 29.5518 76.9809 29.5518C77.7717 29.5518 78.1174 29.9606 78.1174 30.4683C78.1174 30.6788 78.0185 30.852 77.6729 30.902L76.1286 31.1372C75.1036 31.2856 74.3134 31.8797 74.3134 32.9574ZM76.623 33.6506C76.0547 33.6506 75.746 33.2793 75.746 32.8704C75.746 32.3754 76.1043 32.1279 76.5491 32.0531L77.8485 31.8583C77.9902 31.837 78.1174 31.947 78.1174 32.0908C78.1174 33.267 77.4254 33.6506 76.623 33.6506ZM83.3135 26.854C83.3638 26.854 83.4105 26.8556 83.454 26.8581C83.6458 26.8679 83.8321 26.7247 83.8321 26.5318V25.869C83.8321 25.7595 83.7691 25.6604 83.6625 25.6338C83.5193 25.5979 83.3123 25.5665 83.0786 25.5665C81.8433 25.5665 80.979 26.3838 80.979 27.7333V28.2731C80.979 28.4336 80.8496 28.5629 80.69 28.5629H80.2181C80.0585 28.5629 79.9291 28.6927 79.9291 28.8527V29.524C79.9291 29.684 80.0585 29.8138 80.2181 29.8138H80.69C80.8496 29.8138 80.979 29.9436 80.979 30.1036V34.3038C80.979 34.4638 81.1085 34.5938 81.268 34.5938H82.1346C82.2948 34.5938 82.4238 34.4638 82.4238 34.3038V30.1036C82.4238 29.9436 82.5532 29.8138 82.7128 29.8138H83.5302C83.6904 29.8138 83.8194 29.684 83.8194 29.524V28.8527C83.8194 28.6927 83.6904 28.5629 83.5302 28.5629H82.7128C82.5532 28.5629 82.4238 28.4336 82.4238 28.2731V27.7704C82.4238 27.0279 82.9302 26.854 83.3135 26.854ZM87.8568 28.7629C87.8568 28.6249 87.7591 28.5043 87.622 28.4938C87.5757 28.4904 87.5261 28.4881 87.4735 28.4881C86.9862 28.4881 86.5455 28.634 86.2132 28.9002C86.0727 29.0127 85.7322 28.9088 85.7322 28.7286C85.7322 28.637 85.6581 28.5622 85.5668 28.5622H84.6261C84.4661 28.5622 84.3371 28.692 84.3371 28.852V34.3033C84.3371 34.4633 84.4661 34.5931 84.6261 34.5931H85.4806C85.6402 34.5931 85.7696 34.4633 85.7696 34.3033V31.7202C85.7696 30.5933 86.2756 29.9495 87.3874 29.9495C87.4313 29.9495 87.4757 29.9506 87.5215 29.9529C87.6983 29.9611 87.8568 29.8265 87.8568 29.6486V28.7629ZM89.5754 34.5933C89.7349 34.5933 89.8646 34.4636 89.8646 34.3036V28.8522C89.8646 28.6922 89.7349 28.5624 89.5754 28.5624H88.7331C88.5735 28.5624 88.4441 28.6922 88.4441 28.8522V34.3036C88.4441 34.4636 88.5735 34.5933 88.7331 34.5933H89.5754ZM88.2222 26.4454C88.2222 26.9654 88.6417 27.374 89.1483 27.374C89.6667 27.374 90.0865 26.9654 90.0865 26.4454C90.0865 25.9249 89.6667 25.504 89.1483 25.504C88.6417 25.504 88.2222 25.9249 88.2222 26.4454ZM93.7125 29.7008C94.4555 29.7008 94.8635 30.0933 95.0636 30.5256C95.1353 30.6815 95.3094 30.7761 95.4701 30.7177L96.2083 30.447C96.3482 30.3958 96.428 30.2463 96.3758 30.1065C96.0487 29.2238 95.1786 28.3756 93.7002 28.3756C91.9712 28.3756 90.6253 29.7131 90.6253 31.5702C90.6253 33.4031 91.9712 34.7777 93.7374 34.7777C95.1745 34.7777 96.0499 33.9283 96.4107 33.067C96.4701 32.9249 96.3903 32.7679 96.2464 32.7152L95.5324 32.4554C95.3758 32.3986 95.2053 32.4868 95.1289 32.6352C94.9202 33.0397 94.4929 33.4652 93.7374 33.4652C92.8355 33.4652 92.0578 32.784 92.0578 31.5702C92.0578 30.357 92.8355 29.7008 93.7125 29.7008ZM96.7516 32.9574C96.7516 33.9111 97.5298 34.7777 98.7896 34.7777C99.4197 34.7777 99.8903 34.5713 100.221 34.3011C100.363 34.1852 100.658 34.3743 100.694 34.5545C100.71 34.6315 100.756 34.5922 100.835 34.5922H101.685C101.867 34.5922 102.008 34.424 101.991 34.242C101.976 34.0813 101.963 33.8727 101.963 33.6258V30.6295C101.963 29.4283 101.259 28.3756 99.407 28.3756C98.0466 28.3756 97.1442 29.1577 96.9194 30.0904C96.8847 30.2336 96.9828 30.3693 97.1263 30.4018L97.8657 30.5697C98.035 30.6081 98.1971 30.4868 98.2542 30.3229C98.4108 29.8743 98.8041 29.5518 99.419 29.5518C100.209 29.5518 100.555 29.9606 100.555 30.4683C100.555 30.6788 100.457 30.852 100.111 30.902L98.567 31.1372C97.542 31.2856 96.7516 31.8797 96.7516 32.9574ZM99.0614 33.6506C98.4929 33.6506 98.1842 33.2793 98.1842 32.8704C98.1842 32.3754 98.5421 32.1279 98.9872 32.0531L100.287 31.8583C100.428 31.837 100.555 31.947 100.555 32.0908C100.555 33.267 99.8638 33.6506 99.0614 33.6506Z" fill="#532D94"/>
</g>
<defs>
<clipPath id="clip0_111_2631">
<rect width="102" height="35" fill="white"/>
</clipPath>
</defs>
</svg>
