<svg width="20" height="20" viewBox="0 0 20 20" fill="none" xmlns="http://www.w3.org/2000/svg">
<path d="M18.2494 4.57817L15.6517 15.88C15.5829 16.1796 15.1976 16.6567 14.664 16.8768C14.1243 17.0985 13.4164 17.0985 12.7452 16.2118C11.4961 14.5605 10.4304 11.07 8.5728 14.773C6.77784 18.3492 4.96148 16.8875 4.63888 15.3968C4.22913 13.501 2.52896 6.98469 2.26446 5.22643C2.18801 4.7173 2.28433 4.19288 2.64363 3.82441C2.99834 3.46052 3.64966 3.13639 4.39884 3.83511C5.24586 4.62709 3.27814 8.64969 11.4502 5.70651C14.6763 4.54453 16.1991 3.54767 17.3014 3.50028C18.4053 3.45135 18.2494 4.57817 18.2494 4.57817Z" fill="#00C9B6"/>
</svg>
