<svg width="50" height="50" viewBox="0 0 50 50" fill="none" xmlns="http://www.w3.org/2000/svg">
<path d="M25.0001 50C38.8072 50 50.0001 38.8071 50.0001 25C50.0001 11.1929 38.8072 0 25.0001 0C11.1929 0 0 11.1929 0 25C0 38.8071 11.1929 50 25.0001 50Z" fill="white"/>
<path d="M15.7426 16.2185C15.7068 16.0485 15.6484 15.8168 15.5976 15.6702C15.5851 15.6218 15.5709 15.5743 15.5551 15.5285C15.2834 14.7352 14.5401 14.166 13.6659 14.166C12.7309 14.166 11.9459 14.8168 11.7276 15.6968C11.6876 15.8552 11.6667 16.0218 11.6667 16.1935C11.6667 16.5377 11.8559 17.1027 11.8684 17.146L12.2509 18.581L12.7626 20.6935C13.1218 22.1743 13.4801 23.6568 13.8384 25.1385L13.8393 25.1402C14.4918 27.8393 15.1451 30.5393 15.8034 33.2377C16.1026 34.4635 16.5559 35.5693 18.0093 35.796C19.4934 36.0268 20.2909 35.1385 20.9693 34.0035L21.0843 33.811C21.7051 32.7718 22.3268 31.7302 23.0159 30.7385C24.3009 28.886 25.4768 29.331 26.7468 31.2127C27.1718 31.8435 27.5643 32.4968 27.9568 33.1502C28.2643 33.661 28.571 34.1718 28.8935 34.6718C29.4893 35.5943 30.371 35.9477 31.4443 35.796C32.5093 35.6452 33.1668 34.9752 33.4185 33.9752L33.6218 33.1652C34.9768 27.7677 36.3285 21.9368 37.6043 16.5193C37.971 14.9627 36.6718 13.8702 35.1351 14.2893C34.6835 14.4127 34.246 14.5935 33.8101 14.7735L33.8076 14.7743C33.7043 14.8177 33.6001 14.8602 33.4968 14.9018C32.6851 15.2302 31.8776 15.5727 31.0701 15.9152L31.0693 15.916C29.2551 16.6852 27.441 17.4543 25.5768 18.066C23.5909 18.7168 21.4843 19.126 19.4026 19.3035C17.2943 19.4835 16.3651 18.5793 15.8151 16.5318C15.7876 16.431 15.7651 16.3252 15.7426 16.2185Z" fill="#5C2799"/>
</svg>
