<svg width="41" height="34" viewBox="0 0 41 34" fill="none" xmlns="http://www.w3.org/2000/svg">
<path d="M39.1902 16.9611C38.8215 17.8496 38.4279 18.7109 37.9995 19.5452C37.8949 19.7487 37.7902 19.9454 37.6856 20.142C37.6308 20.2506 37.571 20.3523 37.5112 20.454C37.4913 20.4947 37.4664 20.5354 37.4465 20.5693C37.307 20.8203 37.4913 20.4947 37.4116 20.6371C37.1824 21.0373 36.9483 21.4239 36.7041 21.8105C35.7326 23.3366 34.6564 24.7405 33.4806 25.9748C33.5753 25.8799 33.4757 25.9816 33.4607 25.9952C33.4209 26.0359 33.386 26.0766 33.3461 26.1105C33.2814 26.1783 33.2116 26.2461 33.1419 26.3139C32.9774 26.4767 32.813 26.6395 32.6436 26.7955C32.3497 27.0736 32.0458 27.3449 31.7419 27.6026C31.1091 28.1384 30.4565 28.6267 29.7888 29.0743C29.44 29.3049 29.0913 29.522 28.7376 29.7254C28.8472 29.6644 28.6429 29.7797 28.613 29.7933C28.5333 29.834 28.4536 29.8814 28.3788 29.9221C28.1995 30.0171 28.0151 30.112 27.8358 30.2002C27.1134 30.5597 26.376 30.8649 25.6286 31.109C25.26 31.2311 24.8863 31.3464 24.5076 31.4414C24.3382 31.4889 24.1688 31.5296 23.9945 31.5635C23.8948 31.5838 23.8002 31.6042 23.7005 31.6245C23.6507 31.6381 23.6009 31.6449 23.551 31.6516C23.5361 31.6516 23.3468 31.6923 23.4265 31.6788C23.5012 31.6652 23.3816 31.6855 23.3767 31.6855C23.3268 31.6923 23.277 31.7059 23.2272 31.7127C23.1276 31.7262 23.0279 31.7466 22.9283 31.7602C22.729 31.7873 22.5297 31.8144 22.3304 31.8348C21.9368 31.8755 21.5482 31.9026 21.1546 31.9161C20.3675 31.9433 19.5803 31.9161 18.7931 31.828C18.6038 31.8076 18.4194 31.7805 18.2301 31.7534C18.1454 31.7398 18.0557 31.7262 17.971 31.7127C17.9212 31.7059 17.8714 31.6991 17.8215 31.6855C17.7966 31.6788 17.6322 31.6516 17.7618 31.672C17.3831 31.5974 16.9995 31.516 16.6258 31.4143C15.8785 31.2176 15.1411 30.9666 14.4137 30.6682C14.055 30.519 13.6963 30.3562 13.3425 30.1799C13.1731 30.0985 13.0037 30.0103 12.8344 29.9154C12.7546 29.8747 12.6749 29.834 12.6002 29.7865C12.5554 29.7594 12.5105 29.739 12.4657 29.7119C12.3411 29.6441 12.4806 29.7255 12.4109 29.678C11.0408 28.8844 9.73045 27.8942 8.50484 26.7412C7.85217 26.124 7.4486 25.7035 6.84076 24.9914C6.27777 24.3335 5.73969 23.6348 5.22651 22.9092C4.71334 22.1767 4.23002 21.4103 3.77169 20.6168C3.69695 20.4879 3.83147 20.7253 3.75674 20.5897C3.73681 20.549 3.7119 20.5151 3.69197 20.4744C3.63218 20.3727 3.57738 20.2641 3.51759 20.1624C3.403 19.9522 3.2934 19.7419 3.1788 19.5249C2.96456 19.1111 2.76029 18.6839 2.56101 18.2565C2.36172 17.8224 2.1724 17.3884 1.98806 16.9408V17.9649C2.35674 17.0764 2.75033 16.2151 3.17877 15.3808C3.28339 15.1774 3.38802 14.9807 3.49265 14.784C3.54745 14.6755 3.60724 14.5737 3.66703 14.472C3.68696 14.4313 3.71187 14.3906 3.73179 14.3567C3.87129 14.1058 3.68696 14.4313 3.76667 14.2889C3.99585 13.8887 4.23001 13.5021 4.47414 13.1155C5.44566 11.5895 6.52186 10.1856 7.69763 8.95119C7.60296 9.04614 7.70261 8.9444 7.71756 8.93084C7.75742 8.89015 7.79229 8.84945 7.83215 8.81554C7.89692 8.74772 7.96667 8.67989 8.03642 8.61207C8.20083 8.4493 8.36524 8.28652 8.53464 8.13053C8.82859 7.85245 9.1325 7.58116 9.43641 7.32343C10.0691 6.78763 10.7218 6.2993 11.3895 5.85168C11.7382 5.62108 12.087 5.40405 12.4407 5.20058C12.3311 5.26162 12.5354 5.14632 12.5653 5.13275C12.645 5.09206 12.7247 5.04458 12.7994 5.00388C12.9788 4.90893 13.1631 4.81398 13.3425 4.72581C14.0649 4.36635 14.8022 4.06113 15.5496 3.81697C15.9183 3.69489 16.292 3.57959 16.6707 3.48464C16.84 3.43716 17.0094 3.39647 17.1838 3.36256C17.2835 3.34221 17.3781 3.32186 17.4778 3.30151C17.5276 3.28795 17.5774 3.28117 17.6272 3.27438C17.6422 3.27438 17.8315 3.23369 17.7518 3.24725C17.6771 3.26082 17.7966 3.24047 17.8016 3.24047C17.8514 3.23369 17.9013 3.22013 17.9511 3.21334C18.0507 3.19978 18.1504 3.17943 18.25 3.16587C18.4493 3.13874 18.6486 3.11161 18.8528 3.09126C19.2464 3.05057 19.635 3.02344 20.0286 3.00987C20.8158 2.98274 21.608 3.00987 22.3902 3.09804C22.5795 3.11839 22.7638 3.14552 22.9532 3.17265C23.0379 3.18622 23.1275 3.19978 23.2122 3.21334C23.2621 3.22013 23.3119 3.22691 23.3617 3.24047C23.3866 3.24726 23.551 3.27439 23.4215 3.25404C23.8001 3.32864 24.1838 3.41003 24.5624 3.51176C25.3097 3.70845 26.0471 3.9594 26.7795 4.25782C27.1382 4.40703 27.4969 4.56981 27.8506 4.74615C28.02 4.82754 28.1894 4.91571 28.3588 5.01066C28.4385 5.05135 28.5183 5.09205 28.593 5.13953C28.6378 5.16666 28.6827 5.187 28.7275 5.21413C28.8521 5.28196 28.7126 5.20057 28.7823 5.24805C30.1524 6.04158 31.4627 7.03183 32.6883 8.18484C33.341 8.80204 33.7446 9.22254 34.3524 9.93464C34.9154 10.5925 35.4535 11.2912 35.9667 12.0168C36.4798 12.7493 36.9632 13.5157 37.4215 14.3092C37.4962 14.4381 37.3617 14.2007 37.4364 14.3363C37.4564 14.377 37.4813 14.4109 37.5012 14.4516C37.561 14.5534 37.6158 14.6619 37.6756 14.7636C37.7902 14.9739 37.8998 15.1841 38.0144 15.4012C38.2286 15.8149 38.4329 16.2422 38.6322 16.6695C38.8315 17.1036 39.0208 17.5377 39.2051 17.9852C39.4044 18.4668 39.8827 18.6228 40.2265 18.3515C40.5802 18.0666 40.6948 17.4427 40.4955 16.9611C38.946 13.2105 36.8436 9.93461 34.3375 7.31654C31.8664 4.73246 28.9916 2.84698 25.9624 1.84999C22.7688 0.791945 19.4258 0.703768 16.1971 1.55834C13.1181 2.37222 10.1637 4.10174 7.59784 6.56367C5.03202 9.02572 2.83981 12.1794 1.18575 15.8148C0.961555 16.3099 0.543047 17.0085 0.597855 17.6121C0.627747 17.9309 0.782191 18.2293 0.901764 18.5074C1.00639 18.7516 1.11102 18.9889 1.22062 19.2263C1.63913 20.142 2.0925 21.0169 2.57578 21.8714C3.51742 23.5331 4.57366 25.0659 5.74443 26.436C8.1458 29.2506 10.9458 31.3871 13.975 32.6487C17.0889 33.9509 20.402 34.2899 23.6255 33.6999C26.7643 33.1234 29.8034 31.6449 32.4939 29.366C35.1693 27.1007 37.481 24.0894 39.2846 20.5761C39.713 19.7419 40.1116 18.8805 40.4753 17.992C40.6746 17.5105 40.56 16.8797 40.2062 16.6016C39.8674 16.3236 39.3892 16.4863 39.1899 16.9611H39.1902Z" fill="white"/>
<path d="M25.6833 17.477C25.6833 17.6669 25.6783 17.8568 25.6683 18.0467C25.6633 18.1553 25.6534 18.2638 25.6484 18.3723C25.6384 18.4944 25.6534 18.3519 25.6534 18.3316C25.6484 18.3926 25.6384 18.4537 25.6334 18.5147C25.5836 18.9081 25.5189 19.2947 25.4242 19.6677C25.3843 19.8373 25.3345 20.0068 25.2897 20.1764C25.3345 20.0136 25.2797 20.2035 25.2598 20.2646C25.2299 20.3595 25.195 20.4545 25.1601 20.5494C25.0306 20.8953 24.8861 21.2277 24.7217 21.5397C24.7068 21.5736 24.6021 21.7635 24.647 21.6889C24.6868 21.6143 24.5822 21.7974 24.5623 21.8313C24.4676 21.9873 24.363 22.1433 24.2584 22.2925C24.1687 22.4214 24.074 22.5434 23.9794 22.6587C23.9295 22.7198 23.8797 22.774 23.8349 22.8351C23.81 22.8622 23.7851 22.8893 23.7601 22.9233C23.7452 22.9368 23.6057 23.086 23.6804 23.0114C23.7352 22.9572 23.5957 23.0928 23.5708 23.1132C23.516 23.1674 23.4612 23.2149 23.4064 23.2624C23.2868 23.3709 23.1673 23.4658 23.0427 23.5608C22.9182 23.6557 22.7936 23.7439 22.6641 23.8253C22.6342 23.8456 22.4747 23.9338 22.5395 23.8999C22.6192 23.8592 22.5146 23.9135 22.5046 23.9135C22.4648 23.9338 22.4199 23.9542 22.3801 23.9745C22.1061 24.1102 21.8271 24.2187 21.5431 24.2933C21.4783 24.3136 21.4086 24.3272 21.3438 24.3408C21.294 24.3543 21.1395 24.3747 21.274 24.3543C21.1146 24.3747 20.9552 24.395 20.7908 24.4018C20.5018 24.4154 20.2128 24.395 19.9239 24.3543C19.8342 24.3408 19.9388 24.3611 19.9538 24.3611C19.9089 24.3543 19.8641 24.3408 19.8192 24.334C19.7545 24.3204 19.6847 24.3001 19.6199 24.2865C19.4755 24.2458 19.336 24.1983 19.1965 24.1441C19.0669 24.0966 18.9424 24.0423 18.8178 23.9813C18.7431 23.9474 18.6733 23.9067 18.5986 23.866C18.7282 23.9338 18.5438 23.8321 18.5039 23.805C18.2449 23.6422 17.9958 23.4523 17.7616 23.242C17.7068 23.1945 17.652 23.1403 17.5972 23.0928C17.5723 23.0725 17.4328 22.93 17.4876 22.9911C17.5424 23.0453 17.4079 22.9029 17.383 22.8758C17.3232 22.8079 17.2684 22.7401 17.2086 22.6723C16.9993 22.4146 16.8 22.1365 16.6207 21.8449C16.5808 21.777 16.536 21.7092 16.4961 21.6414C16.5709 21.777 16.4812 21.6143 16.4563 21.56C16.3666 21.3904 16.2819 21.2141 16.2072 21.0378C16.1374 20.8818 16.0776 20.7258 16.0178 20.5698C15.988 20.4884 15.9581 20.407 15.9331 20.3256C15.9132 20.2646 15.8235 19.9797 15.8783 20.1561C15.7787 19.8034 15.689 19.4439 15.6242 19.0777C15.5894 18.881 15.5595 18.6911 15.5346 18.4944C15.5246 18.4266 15.5097 18.2163 15.5246 18.3994C15.5146 18.2909 15.5097 18.1824 15.4997 18.0739C15.4748 17.6669 15.4748 17.2532 15.4997 16.8463C15.5047 16.7513 15.5146 16.6564 15.5196 16.5682C15.5296 16.4461 15.5146 16.5885 15.5146 16.6089C15.5196 16.5614 15.5246 16.5139 15.5296 16.4732C15.5545 16.263 15.5844 16.0527 15.6243 15.8425C15.689 15.4762 15.7787 15.1168 15.8783 14.7641C15.8285 14.9472 15.9033 14.6895 15.9232 14.6352C15.9531 14.5538 15.978 14.4724 16.0079 14.3911C16.0727 14.2215 16.1424 14.0519 16.2122 13.8824C16.2869 13.7196 16.3616 13.5568 16.4463 13.4008C16.4613 13.3669 16.5659 13.177 16.521 13.2516C16.4712 13.3398 16.536 13.2245 16.541 13.2177C16.5709 13.1702 16.5958 13.1228 16.6257 13.0821C16.805 12.7904 17.0043 12.5123 17.2136 12.2546C17.3082 12.1393 17.4079 12.024 17.5125 11.9155C17.4128 12.0172 17.5324 11.8951 17.5723 11.8612C17.6321 11.8002 17.6968 11.7459 17.7616 11.6849C18.0007 11.4746 18.2499 11.2847 18.5039 11.1219C18.5338 11.1016 18.6933 11.0134 18.6285 11.0473C18.5488 11.088 18.6534 11.0338 18.6634 11.0338C18.7032 11.0134 18.7481 10.9931 18.7879 10.9727C18.9225 10.9049 19.062 10.8439 19.2015 10.7896C19.331 10.7421 19.4605 10.6946 19.595 10.6607C19.6748 10.6404 19.7495 10.62 19.8292 10.5997C19.8641 10.5929 19.894 10.5861 19.9289 10.5793C20.0484 10.5522 19.8143 10.5929 19.9338 10.5793C20.2228 10.5387 20.5118 10.5183 20.8007 10.5319C20.9502 10.5386 21.0997 10.559 21.2491 10.5793C21.3388 10.5929 21.2342 10.5726 21.2192 10.5726C21.2541 10.5793 21.289 10.5861 21.3189 10.5929C21.3986 10.6133 21.4733 10.6268 21.5531 10.6472C21.837 10.7286 22.116 10.8303 22.3901 10.9659C22.4548 10.9998 22.5146 11.027 22.5744 11.0609C22.4548 10.9998 22.5943 11.0745 22.6392 11.1016C22.7787 11.1898 22.9132 11.2847 23.0477 11.3864C23.1623 11.4746 23.2719 11.5628 23.3865 11.6645C23.4413 11.712 23.4961 11.7595 23.5509 11.8137C23.5858 11.8476 23.7751 12.0375 23.6605 11.9155C23.8748 12.1393 24.074 12.3902 24.2634 12.6547C24.363 12.7904 24.4577 12.9328 24.5473 13.082C24.5872 13.1498 24.632 13.2177 24.6719 13.2855C24.5872 13.1363 24.7068 13.3533 24.7317 13.4008C24.8961 13.7196 25.0406 14.0451 25.1701 14.391C25.2 14.4724 25.2299 14.5538 25.2548 14.6352C25.2698 14.6759 25.3345 14.8929 25.3096 14.8047C25.2847 14.7166 25.3445 14.9404 25.3594 14.9743C25.3893 15.0896 25.4192 15.2049 25.4441 15.3134C25.5288 15.6797 25.5936 16.0459 25.6384 16.4257C25.6484 16.4936 25.6634 16.7038 25.6484 16.5207C25.6584 16.6292 25.6634 16.7377 25.6733 16.8462C25.6783 17.0633 25.6833 17.2735 25.6833 17.477C25.6833 18.006 26.0271 18.5215 26.4306 18.4943C26.8342 18.4672 27.1779 18.0467 27.1779 17.477C27.163 13.6992 25.4093 10.3352 22.8136 9.02614C20.2726 7.74427 17.2435 8.86337 15.5296 11.7187C13.7759 14.6419 13.4819 18.8199 14.9268 22.0821C16.3667 25.3376 19.1866 26.9926 21.9168 26.2668C24.5275 25.5682 26.6848 22.55 27.0884 18.9623C27.1432 18.4672 27.183 17.972 27.183 17.4769C27.183 16.9479 26.8393 16.4324 26.4357 16.4595C26.0222 16.4867 25.6834 16.9072 25.6834 17.4769L25.6833 17.477Z" fill="white"/>
</svg>
