<svg width="33" height="34" viewBox="0 0 33 34" fill="none" xmlns="http://www.w3.org/2000/svg">
<path d="M19.7817 19.9484C19.9036 19.5444 19.985 19.1001 19.985 18.5346C19.985 17.7671 19.863 17.2017 19.6192 16.7979C19.3753 16.3938 19.0501 16.1113 18.6843 15.9901C18.4405 15.9093 17.9933 15.8287 17.4243 15.8287H15.8795V21.3623H17.4243C17.912 21.3623 18.278 21.322 18.5624 21.2411C18.8471 21.1602 19.0502 21.0391 19.2129 20.8776C19.497 20.6351 19.6597 20.3122 19.7817 19.9484Z" fill="white"/>
<path d="M11.855 18.05C12.0989 17.8077 12.2616 17.4845 12.2616 17.0805C12.2616 16.7574 12.1803 16.5151 12.0178 16.313C11.8553 16.111 11.652 15.9496 11.4082 15.8687C11.2457 15.8284 10.961 15.7878 10.5139 15.7878H8.64386V18.3729H10.5544C11.1637 18.4138 11.6109 18.2926 11.855 18.05Z" fill="white"/>
<path d="M25.7571 0.52002H2.95283V12.7183H0.838989V24.028H2.9934V33.52H32.139V6.86151L25.7571 0.52002ZM26.001 1.89326L30.8383 6.69995H26.001V1.89326ZM31.326 32.6717H3.7657V24.0279H31.2853V32.6717H31.326ZM7.66804 22.2103V14.9398H10.432C10.9198 14.9398 11.2858 14.9801 11.5297 15.0206C11.8954 15.0609 12.1801 15.1821 12.4239 15.3438C12.6678 15.5053 12.8711 15.7478 12.993 16.0304C13.1555 16.3133 13.1963 16.6768 13.1963 17.0402C13.1963 17.646 12.993 18.1712 12.5867 18.6155C12.1801 19.0598 11.4891 19.2618 10.4323 19.2618H8.56226V22.2103H7.66804ZM14.9443 22.2103V14.9398H17.4645C18.0335 14.9398 18.4807 14.9801 18.7654 15.0609C19.172 15.1418 19.5378 15.3438 19.8222 15.5861C20.188 15.9093 20.5132 16.313 20.676 16.8382C20.8384 17.3634 20.9607 17.9288 20.9607 18.5749C20.9607 19.1403 20.8793 19.625 20.7574 20.029C20.6354 20.4733 20.4727 20.7965 20.2696 21.0791C20.0663 21.362 19.863 21.5637 19.6192 21.7254C19.3753 21.8869 19.0907 22.0083 18.7654 22.0889C18.4402 22.1697 18.0339 22.21 17.5867 22.21L14.9443 22.2103ZM27.2204 18.0499V18.8983H23.8059V22.2106H22.8302V14.9401H27.749V15.7884H23.7654V18.0503L27.2204 18.0499ZM31.3259 12.7184H3.76563V1.32793H25.1878V7.50785H31.3258L31.3259 12.7184Z" fill="white"/>
</svg>
