<svg width="33" height="33" viewBox="0 0 33 33" fill="none" xmlns="http://www.w3.org/2000/svg">
<g clip-path="url(#clip0_9_42)">
<path fill-rule="evenodd" clip-rule="evenodd" d="M5.6416 11.9042C7.03299 11.9042 8.33716 12.4677 9.29385 13.353L23.0327 5.94809C22.8588 5.54572 22.7718 5.06281 22.7718 4.57984C22.7718 2.08483 25.0326 -0.00799561 27.7284 -0.00799561C30.424 -0.00799561 32.685 2.08465 32.685 4.57984C32.685 7.07485 30.4241 9.16767 27.7284 9.16767C26.337 9.16767 25.0328 8.60418 24.0761 7.71887L10.3373 15.1238C10.5112 15.5261 10.5982 16.009 10.5982 16.492C10.5982 16.975 10.5112 17.4579 10.3373 17.8603L24.0761 25.2651C25.0326 24.3799 26.337 23.8163 27.7284 23.8163C30.424 23.8163 32.685 25.909 32.685 28.4042C32.685 30.9797 30.4241 32.992 27.7284 32.992C25.0328 32.992 22.7718 30.9799 22.7718 28.4042C22.7718 27.9212 22.8588 27.5189 23.0327 27.0359L9.29385 19.631C8.33742 20.5163 7.03299 21.0798 5.6416 21.0798C2.94604 21.0798 0.684998 19.0677 0.684998 16.492C0.684998 13.997 2.94585 11.9042 5.6416 11.9042Z" fill="white"/>
</g>
<defs>
<clipPath id="clip0_9_42">
<rect width="33" height="33" fill="white"/>
</clipPath>
</defs>
</svg>
